<svg width="76" height="76" viewBox="0 0 76 76" fill="none" xmlns="http://www.w3.org/2000/svg">
    <path fill-rule="evenodd" clip-rule="evenodd" d="M53.833 6.33301H56.9997C63.9953 6.33301 69.6663 12.0041 69.6663 18.9997V37.9997C69.6663 41.4975 66.8308 44.333 63.333 44.333H47.4997C44.0019 44.333 41.1663 47.1685 41.1663 50.6663V63.333C41.1663 66.8308 38.3308 69.6663 34.833 69.6663H18.9997C12.0041 69.6663 6.33301 63.9953 6.33301 56.9997V18.9997C6.33301 12.0041 12.0041 6.33301 18.9997 6.33301H22.1663H25.333H50.6663H53.833ZM25.333 24.0213V11.083H50.6663V24.0213C50.6663 26.8425 47.2554 28.2554 45.2605 26.2605L40.2388 21.2388C39.0022 20.0022 36.9972 20.0022 35.7605 21.2388L30.7388 26.2605C28.744 28.2554 25.333 26.8425 25.333 24.0213ZM51.9616 51.7694C51.0341 50.8419 49.5303 50.8419 48.6028 51.7694C47.6753 52.6969 47.6753 54.2007 48.6028 55.1282L53.6409 60.1662L48.6027 65.2044C47.6752 66.1319 47.6752 67.6357 48.6027 68.5632C49.5302 69.4907 51.034 69.4907 51.9615 68.5632L56.9997 63.525L62.0379 68.5632C62.9654 69.4907 64.4691 69.4907 65.3966 68.5632C66.3241 67.6357 66.3241 66.1319 65.3966 65.2044L60.3584 60.1662L65.3965 55.1282C66.324 54.2007 66.324 52.6969 65.3965 51.7694C64.469 50.8419 62.9653 50.8419 62.0378 51.7694L56.9997 56.8075L51.9616 51.7694Z" fill="#333333"/>
</svg>
