<svg width="18" height="18" viewBox="0 0 18 18" fill="none" xmlns="http://www.w3.org/2000/svg">
    <path fill-rule="evenodd" clip-rule="evenodd" d="M6.65427 3.7645H16.6469L10.7118 7.83324L6.67466 5.06564C6.82836 4.65406 6.82966 4.18884 6.65427 3.7645ZM4.04086 6.12602L5.49738 5.23917C5.92962 4.97599 6.0731 4.41447 5.82004 3.97618L4.50509 1.69862C4.3702 1.46493 4.16601 1.31461 3.90283 1.25519C3.63962 1.19574 3.39071 1.24373 3.16845 1.39677L0.770375 3.04784C-0.371113 7.06986 4.7585 15.7774 8.69263 16.7695L11.3215 15.5183C11.5652 15.4023 11.7312 15.2107 11.8113 14.9531C11.8915 14.6954 11.8634 14.4435 11.7284 14.2098L10.4135 11.9322C10.1605 11.4939 9.60243 11.3374 9.15837 11.5802L7.66209 12.3981C6.18236 11.0821 4.44072 8.06552 4.04086 6.12602ZM17.3727 4.28777L10.9491 8.69137C10.7988 8.79396 10.6057 8.78594 10.466 8.68557L6.20156 5.76215C6.12077 5.83496 6.03228 5.90133 5.93616 5.95987L5.01493 6.52075C5.49893 8.08275 6.69652 10.157 7.80725 11.3572L8.75362 10.8398C9.5992 10.3776 10.6623 10.6758 11.1441 11.5103L11.9596 12.9228H16.7095C17.0846 12.9228 17.3914 12.6159 17.3914 12.2409V4.44639C17.3914 4.39183 17.3849 4.33871 17.3727 4.28777Z" fill="#22BE0D"/>
</svg>
