<svg width="6" height="10" viewBox="0 0 6 10" fill="none" xmlns="http://www.w3.org/2000/svg">
    <path d="M4.61044 4.54258C4.15604 4.32572 3.67294 4.1605 3.19463 3.98907C2.9172 3.88994 2.65174 3.77428 2.41736 3.61318C1.95579 3.29512 2.04428 2.77879 2.58477 2.57432C2.73784 2.51649 2.89807 2.4979 3.0607 2.48964C3.68729 2.46073 4.2828 2.55986 4.8496 2.79531C5.13181 2.91303 5.22508 2.87586 5.32074 2.62182C5.42119 2.35333 5.5049 2.08071 5.59817 1.81015C5.66035 1.6284 5.58382 1.50861 5.38532 1.43219C5.0218 1.29382 4.64871 1.19468 4.25649 1.14098C3.74469 1.07282 3.74469 1.07076 3.7423 0.626713C3.73991 0.000917937 3.73991 0.000917925 3.01287 0.000917925C2.90764 0.000917925 2.80241 -0.00114741 2.69718 0.000917925C2.35757 0.00917925 2.30018 0.0608125 2.29061 0.356155C2.28583 0.488336 2.29061 0.620517 2.28822 0.754764C2.28583 1.14718 2.28343 1.14098 1.84817 1.27729C0.795871 1.60775 0.145361 2.22734 0.0760048 3.2187C0.0138237 4.09647 0.544755 4.68922 1.37942 5.12087C1.89361 5.3873 2.4628 5.54427 3.00808 5.75287C3.22093 5.83341 3.42422 5.92635 3.6012 6.0544C4.12495 6.42823 4.02929 7.04989 3.40748 7.28534C3.07505 7.41133 2.72349 7.44231 2.36236 7.40307C1.80512 7.34317 1.2718 7.21719 0.769564 6.99206C0.475399 6.85988 0.389302 6.89499 0.288855 7.16968C0.202759 7.4072 0.126228 7.64677 0.0496975 7.88635C-0.0531405 8.20854 -0.0148755 8.28496 0.34147 8.43573C0.795871 8.62574 1.28136 8.72281 1.77642 8.79097C2.16386 8.84467 2.17581 8.85912 2.1806 9.2061C2.18299 9.36306 2.18299 9.5221 2.18538 9.67906C2.18777 9.87733 2.29778 9.99299 2.53455 9.99712C2.80241 10.0013 3.07266 10.0013 3.34051 9.99506C3.56054 9.99093 3.67294 9.88766 3.67294 9.69558C3.67294 9.48079 3.6849 9.26393 3.67533 9.04914C3.66338 8.83021 3.77339 8.71868 4.01733 8.66085C4.57935 8.52867 5.05767 8.26844 5.42597 7.88016C6.44957 6.80618 6.05974 5.23447 4.61044 4.54258Z" fill="#22BE0D"/>
</svg>
