<svg width="18" height="18" viewBox="0 0 18 18" fill="none" xmlns="http://www.w3.org/2000/svg">
<path d="M8.33999 14.1435C8.3417 12.8681 8.81563 11.6387 9.67001 10.6934C10.5244 9.74803 11.6985 9.15401 12.9648 9.02633C12.6413 8.61623 12.229 8.28511 11.7592 8.05793C11.2893 7.83076 10.7741 7.71346 10.2524 7.71489C10.1528 7.71489 10.0546 7.73812 9.96551 7.78276C9.87643 7.82739 9.79894 7.89219 9.73918 7.97203C8.68193 9.37154 5.43382 9.37154 4.37657 7.97203C4.31661 7.89241 4.23908 7.82777 4.15004 7.78316C4.06101 7.73855 3.96288 7.71518 3.86334 7.71489C2.99734 7.71052 2.16141 8.03283 1.5217 8.61777C0.881983 9.2027 0.485332 10.0074 0.410584 10.872L0 15.4292C0 16.1112 0.270362 16.7653 0.751608 17.2475C1.23285 17.7298 1.88557 18.0007 2.56615 18.0007H10.0888C9.53989 17.5197 9.09988 16.9268 8.79826 16.2616C8.49665 15.5963 8.3404 14.8742 8.33999 14.1435Z" fill="#22BE0D"/>
<path d="M7.05699 0C1.92469 0 1.92469 7.71435 7.05699 7.71435C12.1893 7.71435 12.1893 0 7.05699 0Z" fill="#22BE0D"/>
<path d="M13.4723 10.2861C12.711 10.2861 11.9668 10.5124 11.3338 10.9362C10.7008 11.36 10.2074 11.9624 9.91605 12.6672C9.62471 13.372 9.54849 14.1476 9.69701 14.8958C9.84553 15.644 10.2121 16.3313 10.7505 16.8707C11.2888 17.4102 11.9747 17.7775 12.7213 17.9264C13.468 18.0752 14.242 17.9988 14.9453 17.7069C15.6487 17.4149 16.2498 16.9205 16.6728 16.2862C17.0957 15.6519 17.3215 14.9062 17.3215 14.1433C17.3203 13.1207 16.9144 12.1403 16.1928 11.4172C15.4712 10.6941 14.4928 10.2873 13.4723 10.2861ZM14.7553 14.7862H12.1892C12.0191 14.7862 11.8559 14.7184 11.7356 14.5979C11.6153 14.4773 11.5477 14.3138 11.5477 14.1433C11.5477 13.9728 11.6153 13.8093 11.7356 13.6887C11.8559 13.5682 12.0191 13.5004 12.1892 13.5004H14.7553C14.9255 13.5004 15.0887 13.5682 15.209 13.6887C15.3293 13.8093 15.3969 13.9728 15.3969 14.1433C15.3969 14.3138 15.3293 14.4773 15.209 14.5979C15.0887 14.7184 14.9255 14.7862 14.7553 14.7862Z" fill="#22BE0D"/>
</svg>
