<svg width="20" height="20" viewBox="0 0 20 20" fill="none" xmlns="http://www.w3.org/2000/svg">
<path d="M18.3334 10.0003V15.0003C18.3334 16.8413 16.841 18.3337 15.0001 18.3337H5.00008C3.15913 18.3337 1.66675 16.8413 1.66675 15.0003V5.00033C1.66675 3.15938 3.15913 1.66699 5.00008 1.66699H10.0001M13.072 3.35262C13.072 3.35262 13.072 4.54453 14.264 5.73644C15.4559 6.92836 16.6478 6.92836 16.6478 6.92836M7.62898 13.325L10.132 12.9674C10.493 12.9158 10.8276 12.7485 11.0855 12.4906L17.8397 5.73644C18.498 5.07817 18.498 4.01089 17.8397 3.35261L16.6478 2.1607C15.9895 1.50242 14.9222 1.50242 14.264 2.1607L7.50978 8.91488C7.25189 9.17277 7.0846 9.50736 7.03302 9.86841L6.67544 12.3714C6.59598 12.9277 7.07275 13.4044 7.62898 13.325Z" stroke="#22BE0D" stroke-width="1.2" stroke-linecap="round"/>
</svg>
