<svg width="137" height="142" viewBox="0 0 137 142" fill="none" xmlns="http://www.w3.org/2000/svg">
    <path d="M118.5 61.0833C118.5 73.3244 114.401 84.6752 107.533 93.8004C103.767 98.6968 99.2252 103.037 94.0187 106.375C85.5998 111.939 75.5192 115.167 64.6632 115.167C34.8646 115.167 10.7156 90.9071 10.7156 61.0833C10.7156 31.1483 34.8646 7 64.5524 7C75.4084 7 85.489 10.2272 93.9079 15.68C99.1144 19.0185 103.656 23.3585 107.423 28.255C114.401 37.4914 118.5 48.731 118.5 61.0833Z" fill="#EDEDED"/>
    <path d="M14.3287 107.853C15.3257 107.853 16.2119 107.074 16.2119 105.961C16.2119 104.96 15.4365 104.069 14.3287 104.069C13.3318 104.069 12.4456 104.848 12.4456 105.961C12.4456 106.963 13.221 107.853 14.3287 107.853Z" fill="url(#paint0_linear_2767_20928)"/>
    <path d="M30.6252 22.5796C31.6222 22.5796 32.3976 21.8006 32.3976 20.7991C32.3976 19.7975 31.6222 19.0186 30.6252 19.0186C29.6282 19.0186 28.8528 19.7975 28.8528 20.7991C28.8528 21.8006 29.6282 22.5796 30.6252 22.5796Z" fill="url(#paint1_linear_2767_20928)"/>
    <g filter="url(#filter0_d_2767_20928)">
        <path d="M114.734 15.3463V105.485C114.734 107.043 112.961 107.822 111.853 106.709L109.97 104.929C109.306 104.261 108.198 104.261 107.533 104.929L103.988 108.379C103.324 109.046 102.216 109.046 101.551 108.379L98.0065 104.929C97.3418 104.261 96.2341 104.261 95.5694 104.929L92.0246 108.379C91.3599 109.046 90.2522 109.046 89.5875 108.379L86.0427 104.929C85.3781 104.261 84.2703 104.261 83.6056 104.929L80.1716 108.379C79.507 109.046 78.3992 109.046 77.7346 108.379L74.1897 104.929C73.5251 104.261 72.4173 104.261 71.7527 104.929L68.2079 108.379C67.5432 109.046 66.4355 109.046 65.7708 108.379L62.226 104.929C61.5613 104.261 60.4536 104.261 59.7889 104.929L56.2441 108.379C55.5795 109.046 54.4717 109.046 53.8071 108.379L49.1545 103.705L48.8222 104.038L46.0528 106.709C44.945 107.822 43.1726 107.043 43.1726 105.485V15.3463C43.1726 13.7883 44.945 13.0093 46.0528 14.1222L47.936 15.9027C48.6006 16.5704 49.7084 16.5704 50.373 15.9027L53.9178 12.4529C54.5825 11.7852 55.6902 11.7852 56.3549 12.4529L59.8997 15.9027C60.5644 16.5704 61.6721 16.5704 62.3368 15.9027L65.8816 12.4529C66.5462 11.7852 67.654 11.7852 68.3186 12.4529L71.8634 15.9027C72.5281 16.5704 73.6359 16.5704 74.3005 15.9027L77.8453 12.4529C78.51 11.7852 79.6177 11.7852 80.2824 12.4529L83.7164 15.9027C84.3811 16.5704 85.4888 16.5704 86.1535 15.9027L89.6983 12.4529C90.3629 11.7852 91.4707 11.7852 92.1354 12.4529L95.6802 15.9027C96.3448 16.5704 97.4526 16.5704 98.1172 15.9027L101.662 12.4529C102.327 11.7852 103.434 11.7852 104.099 12.4529L107.644 15.9027C108.309 16.5704 109.416 16.5704 110.081 15.9027L111.964 14.1222C112.961 13.0093 114.734 13.7883 114.734 15.3463Z" fill="white"/>
    </g>
    <path d="M101.33 35.5994H93.5756C92.8001 35.5994 92.1355 34.9317 92.1355 34.1527C92.1355 33.3737 92.8001 32.7061 93.5756 32.7061H101.33C102.105 32.7061 102.77 33.3737 102.77 34.1527C102.77 34.9317 102.105 35.5994 101.33 35.5994Z" fill="#C5CCDE"/>
    <path d="M86.486 35.5994H55.912C55.1366 35.5994 54.4719 34.9317 54.4719 34.1527C54.4719 33.3737 55.1366 32.7061 55.912 32.7061H86.486C87.2615 32.7061 87.9261 33.3737 87.9261 34.1527C87.9261 34.9317 87.2615 35.5994 86.486 35.5994Z" fill="#C5CCDE"/>
    <path d="M101.33 49.3987H88.037C87.2616 49.3987 86.5969 48.731 86.5969 47.952C86.5969 47.1731 87.2616 46.5054 88.037 46.5054H101.33C102.105 46.5054 102.77 47.1731 102.77 47.952C102.77 48.731 102.105 49.3987 101.33 49.3987Z" fill="#C5CCDE"/>
    <path d="M80.947 49.3987H67.3217C66.5462 49.3987 65.8816 48.731 65.8816 47.952C65.8816 47.1731 66.5462 46.5054 67.3217 46.5054H81.0578C81.8333 46.5054 82.4979 47.1731 82.4979 47.952C82.4979 48.731 81.7225 49.3987 80.947 49.3987Z" fill="#C5CCDE"/>
    <path d="M62.0047 49.3987H55.912C55.1366 49.3987 54.4719 48.731 54.4719 47.952C54.4719 47.1731 55.1366 46.5054 55.912 46.5054H62.0047C62.7801 46.5054 63.4447 47.1731 63.4447 47.952C63.4447 48.731 62.7801 49.3987 62.0047 49.3987Z" fill="#13544E"/>
    <path d="M78.6207 63.3089H68.0971C67.3216 63.3089 66.657 62.6412 66.657 61.8622C66.657 61.0832 67.3216 60.4155 68.0971 60.4155H78.6207C79.3962 60.4155 80.0608 61.0832 80.0608 61.8622C80.0608 62.6412 79.3962 63.3089 78.6207 63.3089Z" fill="#C5CCDE"/>
    <path d="M62.4478 63.3089H55.912C55.1366 63.3089 54.4719 62.6412 54.4719 61.8622C54.4719 61.0832 55.1366 60.4155 55.912 60.4155H62.4478C63.2232 60.4155 63.8878 61.0832 63.8878 61.8622C63.8878 62.6412 63.2232 63.3089 62.4478 63.3089Z" fill="#13544E"/>
    <path d="M78.621 77.1082H55.912C55.1366 77.1082 54.4719 76.4405 54.4719 75.6615C54.4719 74.8825 55.1366 74.2148 55.912 74.2148H78.621C79.3964 74.2148 80.0611 74.8825 80.0611 75.6615C80.0611 76.4405 79.3964 77.1082 78.621 77.1082Z" fill="#C5CCDE"/>
    <path d="M78.6209 88.125C70.645 88.125 63.8877 88.125 55.9119 88.125C54.0287 88.125 54.0287 90.9071 55.9119 90.9071C64.6632 90.9071 69.9804 90.9071 78.6209 90.9071C79.3963 90.9071 80.0609 90.2394 80.0609 89.4604C80.0609 88.6814 79.3963 88.125 78.6209 88.125Z" fill="#C5CCDE"/>
    <path d="M97.1203 92.4654C96.0125 92.4654 95.1263 91.5751 95.1263 90.4623V88.348C93.4647 88.2367 91.9138 87.7915 90.5845 87.2351C89.5876 86.79 89.1445 85.6772 89.4768 84.5643C89.8091 83.6741 90.5845 83.1177 91.4707 83.1177C91.8031 83.1177 92.0246 83.229 92.3569 83.3402C93.2431 83.7854 94.6832 84.2305 96.4556 84.2305C98.8927 84.2305 100.554 82.8951 100.554 81.0033C100.554 79.2228 99.3358 78.11 96.4556 76.8859C92.8 75.4392 89.4768 73.5474 89.4768 69.3186C89.4768 65.8689 91.8031 63.0868 95.4587 62.3078V60.0822C95.4587 58.9694 96.3449 58.0791 97.4526 58.0791C98.5604 58.0791 99.4466 58.9694 99.4466 60.0822V62.0853C100.776 62.1966 101.884 62.4191 102.991 62.8643C103.988 63.3094 104.542 64.5335 104.099 65.535C103.767 66.314 102.991 66.8704 102.105 66.8704C101.773 66.8704 101.551 66.8704 101.33 66.7591C100.222 66.314 99.1142 66.0914 97.8957 66.0914C95.2371 66.0914 94.3509 67.5381 94.3509 68.8735C94.3509 70.4315 95.3479 71.3217 98.8927 72.7684C103.545 74.6602 105.539 77.1084 105.539 80.7807C105.539 84.4531 102.991 87.3464 99.225 88.1254V90.4623C99.1142 91.5751 98.228 92.4654 97.1203 92.4654Z" fill="#C5CCDE"/>
    <g filter="url(#filter1_d_2767_20928)">
        <path d="M68.6511 45.7266V77.9985C68.6511 80.0016 67.1002 81.5596 65.1063 81.5596H12.0448C10.0509 81.5596 8.5 80.0016 8.5 77.9985V45.7266C8.5 43.7235 10.0509 42.1655 12.0448 42.1655H65.1063C67.1002 42.1655 68.6511 43.8348 68.6511 45.7266Z" fill="#13544E"/>
    </g>
    <path d="M22.9007 64.5331H14.7033C14.0387 64.5331 13.374 63.9767 13.374 63.1977C13.374 62.53 13.9279 61.8623 14.7033 61.8623H22.9007C23.5654 61.8623 24.23 62.4187 24.23 63.1977C24.1192 63.9767 23.5654 64.5331 22.9007 64.5331Z" fill="#22BE0D"/>
    <path d="M36.1937 64.5331H27.9963C27.3316 64.5331 26.667 63.9767 26.667 63.1977C26.667 62.53 27.2209 61.8623 27.9963 61.8623H36.1937C36.8583 61.8623 37.523 62.4187 37.523 63.1977C37.4122 63.9767 36.8583 64.5331 36.1937 64.5331Z" fill="#22BE0D"/>
    <path d="M49.4866 64.5331H41.2893C40.6246 64.5331 39.96 63.9767 39.96 63.1977C39.96 62.53 40.5138 61.8623 41.2893 61.8623H49.4866C50.1513 61.8623 50.816 62.4187 50.816 63.1977C50.7052 63.9767 50.1513 64.5331 49.4866 64.5331Z" fill="#22BE0D"/>
    <path d="M62.78 74.5482H47.6037C46.9391 74.5482 46.2744 73.9918 46.2744 73.2128C46.2744 72.5451 46.8283 71.8774 47.6037 71.8774H62.6692C63.3338 71.8774 63.9985 72.4339 63.9985 73.2128C63.9985 73.9918 63.4446 74.5482 62.78 74.5482Z" fill="#22BE0D"/>
    <path d="M62.7801 64.5331H54.5827C53.9181 64.5331 53.2534 63.9767 53.2534 63.1977C53.2534 62.53 53.8073 61.8623 54.5827 61.8623H62.7801C63.4448 61.8623 64.1094 62.4187 64.1094 63.1977C63.9986 63.9767 63.4448 64.5331 62.7801 64.5331Z" fill="#22BE0D"/>
    <path d="M22.0148 76.8853C23.9725 76.8853 25.5596 75.2909 25.5596 73.3242C25.5596 71.3575 23.9725 69.7632 22.0148 69.7632C20.057 69.7632 18.47 71.3575 18.47 73.3242C18.47 75.2909 20.057 76.8853 22.0148 76.8853Z" fill="#22BE0D"/>
    <path d="M17.2511 76.8853C19.2089 76.8853 20.7959 75.2909 20.7959 73.3242C20.7959 71.3575 19.2089 69.7632 17.2511 69.7632C15.2934 69.7632 13.7063 71.3575 13.7063 73.3242C13.7063 75.2909 15.2934 76.8853 17.2511 76.8853Z" fill="#B3C6FF"/>
    <path d="M68.6511 48.7305H8.5V56.2977H68.6511V48.7305Z" fill="#22BE0D"/>
    <defs>
        <filter id="filter0_d_2767_20928" x="21.1726" y="0.952148" width="115.561" height="140.927" filterUnits="userSpaceOnUse" color-interpolation-filters="sRGB">
            <feFlood flood-opacity="0" result="BackgroundImageFix"/>
            <feColorMatrix in="SourceAlpha" type="matrix" values="0 0 0 0 0 0 0 0 0 0 0 0 0 0 0 0 0 0 127 0" result="hardAlpha"/>
            <feOffset dy="11"/>
            <feGaussianBlur stdDeviation="11"/>
            <feColorMatrix type="matrix" values="0 0 0 0 0.397708 0 0 0 0 0.47749 0 0 0 0 0.575 0 0 0 0.18 0"/>
            <feBlend mode="normal" in2="BackgroundImageFix" result="effect1_dropShadow_2767_20928"/>
            <feBlend mode="normal" in="SourceGraphic" in2="effect1_dropShadow_2767_20928" result="shape"/>
        </filter>
        <filter id="filter1_d_2767_20928" x="0.5" y="39.1655" width="76.1511" height="55.394" filterUnits="userSpaceOnUse" color-interpolation-filters="sRGB">
            <feFlood flood-opacity="0" result="BackgroundImageFix"/>
            <feColorMatrix in="SourceAlpha" type="matrix" values="0 0 0 0 0 0 0 0 0 0 0 0 0 0 0 0 0 0 127 0" result="hardAlpha"/>
            <feOffset dy="5"/>
            <feGaussianBlur stdDeviation="4"/>
            <feColorMatrix type="matrix" values="0 0 0 0 0.1125 0 0 0 0 0.295916 0 0 0 0 1 0 0 0 0.22 0"/>
            <feBlend mode="normal" in2="BackgroundImageFix" result="effect1_dropShadow_2767_20928"/>
            <feBlend mode="normal" in="SourceGraphic" in2="effect1_dropShadow_2767_20928" result="shape"/>
        </filter>
        <linearGradient id="paint0_linear_2767_20928" x1="12.397" y1="105.999" x2="16.2755" y2="105.999" gradientUnits="userSpaceOnUse">
            <stop stop-color="#FF66A9"/>
            <stop offset="1" stop-color="#F53689"/>
        </linearGradient>
        <linearGradient id="paint1_linear_2767_20928" x1="28.8071" y1="20.8345" x2="32.4574" y2="20.8345" gradientUnits="userSpaceOnUse">
            <stop stop-color="#FF66A9"/>
            <stop offset="1" stop-color="#F53689"/>
        </linearGradient>
    </defs>
</svg>
