<svg width="200" height="138" viewBox="0 0 200 138" fill="none" xmlns="http://www.w3.org/2000/svg">
    <path d="M78.5123 112.079C121.873 112.079 157.025 86.9892 157.025 56.0395C157.025 25.0897 121.873 0 78.5123 0C35.1512 0 0 25.0897 0 56.0395C0 86.9892 35.1512 112.079 78.5123 112.079Z" fill="#F5F5FF"/>
    <path d="M163.23 134.947C183.029 134.947 199.08 132.724 199.08 129.982C199.08 127.239 183.029 125.016 163.23 125.016C143.431 125.016 127.38 127.239 127.38 129.982C127.38 132.724 143.431 134.947 163.23 134.947Z" fill="#DFDFEB"/>
    <path d="M88.124 137.92C123.867 137.92 152.843 135.455 152.843 132.414C152.843 129.373 123.867 126.908 88.124 126.908C52.3808 126.908 23.4053 129.373 23.4053 132.414C23.4053 135.455 52.3808 137.92 88.124 137.92Z" fill="#DFDFEB"/>
    <path d="M100.501 34.5224C100.501 34.5224 99.2869 41.4809 90.5858 50.4661C90.5858 50.4661 89.6078 49.2838 91.294 44.3183C92.9466 39.3528 99.9951 32.8334 100.501 34.5224Z" fill="#22BE0D"/>
    <path d="M100.501 34.5225C100.501 34.5225 92.643 40.1636 90.5857 50.4662C90.5857 50.4662 90.181 54.013 91.3952 57.0531" stroke="black" stroke-width="0.36" stroke-miterlimit="10" stroke-linecap="round"/>
    <path d="M79.3891 40.1633C79.3891 40.1633 81.5812 38.4743 77.804 34.3195C74.1954 30.3674 70.3844 26.7868 62.9312 25.5032C62.9312 25.5032 65.1907 35.6031 70.0472 38.0352C74.9036 40.3997 79.3891 40.1633 79.3891 40.1633Z" fill="#22BE0D"/>
    <path d="M61.3122 47.595C61.3122 47.595 69.1028 49.2839 82.2893 44.8927C82.2893 44.8927 81.4799 43.5415 75.578 43.0686C69.6761 42.5957 59.7609 46.4465 61.3122 47.595Z" fill="#22BE0D"/>
    <path d="M61.312 47.5947C61.312 47.5947 70.6539 42.6629 82.2891 44.8923C82.2891 44.8923 83.4695 45.1964 84.7173 46.8178" stroke="black" stroke-width="0.36" stroke-miterlimit="10" stroke-linecap="round"/>
    <path d="M67.7539 54.6546C67.7539 54.6546 76.0841 60.1268 89.2706 55.7355C89.2706 55.7355 86.7075 51.074 80.8056 50.6348C74.9037 50.1619 66.2026 53.5061 67.7539 54.6546Z" fill="#22BE0D"/>
    <path d="M67.7539 54.6543C67.7539 54.6543 76.7248 50.4657 89.2706 55.7352C89.2706 55.7352 90.7545 56.377 91.9686 58.0322" stroke="black" stroke-width="0.36" stroke-miterlimit="10" stroke-linecap="round"/>
    <path d="M95.9142 27.9356C95.9142 27.9356 98.3762 27.6315 92.3731 33.2051C86.7072 38.4408 87.4492 38.4746 87.4492 38.4746C87.4492 38.4746 89.5739 30.6379 95.9142 27.9356Z" fill="black"/>
    <path d="M83.3347 41.1429C83.3347 41.1429 85.1559 41.8523 88.4609 38.8122C91.766 35.772 93.0139 28.9825 95.9142 27.9353C95.9142 27.9353 88.6296 30.2998 83.3347 41.1429Z" fill="#22BE0D"/>
    <path d="M95.3411 64.4167C91.5976 56.8839 86.4376 48.3378 79.3891 40.1633C79.3891 40.1633 77.6691 37.9001 71.6323 32.0225C65.6292 26.145 62.9312 25.5032 62.9312 25.5032" stroke="black" stroke-width="0.36" stroke-miterlimit="10" stroke-linecap="round"/>
    <path d="M95.0375 28.3069C95.0375 28.3069 88.0902 31.347 83.3012 41.1429C82.1545 43.5075 83.5372 45.3991 84.6502 46.8178" stroke="black" stroke-width="0.36" stroke-miterlimit="10" stroke-linecap="round"/>
    <path d="M158.373 109.545C158.373 109.545 152.573 113.835 139.184 110.694C139.184 110.694 139.217 108.532 144.006 106.472C148.829 104.411 159.115 107.552 158.373 109.545Z" fill="#22BE0D"/>
    <path d="M157.969 109.14C157.969 109.14 148.795 106.066 139.251 110.424C139.251 110.424 136.148 112.18 134.395 114.95" stroke="black" stroke-width="0.36" stroke-miterlimit="10" stroke-linecap="round"/>
    <path d="M139.015 100.121C139.015 100.121 141.646 100.932 142.826 95.3919C143.905 90.1561 144.546 84.9541 141.241 78.1646C141.241 78.1646 134.395 85.9337 135.306 91.2708C136.182 96.6079 139.015 100.121 139.015 100.121Z" fill="#22BE0D"/>
    <path d="M158.677 102.182C158.677 102.182 160.734 103.567 152.573 103.803C144.883 104.006 145.389 104.513 145.389 104.513C145.389 104.513 152.168 100.02 158.677 102.182Z" fill="black"/>
    <path d="M140.533 103.803C140.533 103.803 141.444 105.56 145.929 105.425C150.414 105.323 155.81 101.033 158.677 102.182C158.677 102.182 151.662 99.1417 140.533 103.803Z" fill="#22BE0D"/>
    <path d="M128.763 127.28C132.641 119.848 136.52 110.627 139.015 100.088C139.015 100.088 139.825 97.3515 141.072 89.008C142.287 80.6646 141.241 78.0974 141.241 78.0974" stroke="black" stroke-width="0.36" stroke-miterlimit="10" stroke-linecap="round"/>
    <path d="M157.8 101.878C157.8 101.878 150.583 99.5806 140.533 103.803C138.105 104.816 137.396 106.438 136.385 109.444" stroke="black" stroke-width="0.36" stroke-miterlimit="10" stroke-linecap="round"/>
    <path d="M65.8654 59.9578C63.9768 59.9578 62.1556 59.2822 60.7392 58.0999L56.7259 54.7558C55.2757 53.5398 53.5894 52.8979 51.8357 52.8979H31.9715C30.1841 52.8979 28.7002 54.3504 28.7002 56.1745V59.9578V128.191C28.7002 131.299 31.2296 133.833 34.3323 133.833H133.35C135.778 133.833 137.734 131.873 137.734 129.441V64.349C137.734 61.917 135.778 59.9578 133.35 59.9578H65.8654Z" fill="#1D55CD"/>
    <path d="M137.734 129.779C137.734 129.779 130.989 117.112 130.314 115.659L111.9 78.097C111.428 77.0836 110.45 76.4756 109.337 76.4756H40.9086C38.4129 76.4756 34.838 75.1582 32.9157 73.5706L30.1502 71.2736C28.7 70.0576 27.0138 69.4158 25.2601 69.4158H6.37393C4.35041 69.4158 3.00141 71.4763 3.77709 73.3341L26.6091 128.698C27.8906 131.806 30.9259 133.832 34.2647 133.832H136.486C137.16 133.832 137.767 133.258 137.767 132.583L137.734 129.779Z" fill="#4B83FC"/>
    <path d="M109.877 80.0562L136.924 132.65" stroke="black" stroke-width="0.36" stroke-miterlimit="10" stroke-linejoin="round"/>
    <path d="M98.7472 89.1091H75.4768C74.836 89.1091 74.2627 88.8051 73.9254 88.2646C73.1497 87.0485 74.0266 85.4609 75.4768 85.4609H98.7472C99.3879 85.4609 99.9613 85.7649 100.299 86.3054C101.108 87.5215 100.231 89.1091 98.7472 89.1091Z" stroke="black" stroke-width="0.36" stroke-miterlimit="10" stroke-linejoin="round"/>
    <path d="M55.2083 107.181L73.3524 117.99" stroke="black" stroke-width="0.36" stroke-miterlimit="10" stroke-linecap="round" stroke-linejoin="round"/>
    <path d="M70.0473 106.675L58.6482 118.058" stroke="black" stroke-width="0.36" stroke-miterlimit="10" stroke-linecap="round" stroke-linejoin="round"/>
    <path d="M77.1923 116.156C78.7069 110.672 74.0554 104.597 66.8029 102.588C59.5504 100.578 52.4434 103.395 50.9288 108.879C49.4143 114.363 54.0658 120.438 61.3183 122.447C68.5708 124.456 75.6778 121.64 77.1923 116.156Z" stroke="black" stroke-width="0.36" stroke-miterlimit="10" stroke-linecap="round" stroke-linejoin="round"/>
    <path d="M157.868 59.9918C158.307 58.1002 156.317 55.7694 154.428 56.141C152.877 56.445 152.135 56.8165 151.865 56.8841C151.393 57.053 147.784 56.8166 147.346 57.4246C147.042 57.8637 148.931 58.3704 150.145 58.4717C150.381 58.5055 150.482 58.8095 150.246 58.9446C149.066 59.6878 146.705 61.174 146.503 61.5456C146.233 62.0523 145.019 63.9777 145.356 64.1804C145.693 64.3831 146.739 63.4372 147.413 62.7617C148.088 62.0861 150.078 61.5118 150.078 61.5118C150.078 61.5118 146.638 64.9911 146.165 65.9369C145.491 67.3556 147.447 66.7476 147.447 66.7476C147.144 67.5583 148.762 67.3894 149.133 67.0854C149.875 66.4774 152.202 63.6737 152.202 63.9777C152.202 64.2479 149.808 67.3218 150.044 68.0312C150.28 68.7406 151.258 67.8623 151.831 67.0854C152.405 66.3422 154.057 64.2142 154.057 64.2142C154.057 64.2142 155.946 62.8292 157.497 60.4647C157.531 60.3971 157.868 59.9918 157.868 59.9918Z" fill="#DB9C7F"/>
    <path d="M147.548 66.6466L150.853 62.7283" stroke="black" stroke-width="0.36" stroke-miterlimit="10" stroke-linecap="round"/>
    <path d="M133.147 48.8449L144.985 41.4472C145.052 41.4135 145.119 41.3459 145.187 41.2783L149.099 37.2586C149.942 36.5155 151.257 36.6844 151.898 37.6302L153.821 40.5014C154.225 41.1095 154.225 41.8864 153.854 42.5282L151.123 46.987C150.92 47.3248 150.617 47.5613 150.279 47.7301C148.087 48.676 139.622 52.2565 134.597 53.6753C133.349 54.0131 132.135 52.9997 132.236 51.7161L132.371 50.2636C132.371 49.6893 132.675 49.1826 133.147 48.8449Z" fill="#9EC68A"/>
    <path d="M160.397 122.686L159.756 126.942C159.756 126.942 148.054 131.434 149.133 131.502C150.212 131.569 167.075 130.59 167.075 130.59L166.097 122.854L160.397 122.686Z" fill="black"/>
    <path d="M163.669 53.8439C163.669 53.8439 164.613 62.8291 165.288 63.302C165.996 63.7749 166.906 64.0114 166.906 64.0114L165.389 53.7087L163.669 53.8439Z" stroke="#424242" stroke-width="0.36" stroke-miterlimit="10"/>
    <path d="M182.15 47.6287C182.15 47.6287 186.905 57.3233 185.523 62.7279L159.217 59.1135L159.757 49.0474L182.15 47.6287Z" fill="black"/>
    <path d="M182.892 49.6213C182.892 49.6213 179.182 56.5123 172.066 57.0865" stroke="#424242" stroke-width="0.36" stroke-miterlimit="10" stroke-linecap="round"/>
    <path d="M176.922 55.6003C176.922 55.6003 178.373 60.0592 182.554 60.1605" stroke="#424242" stroke-width="0.36" stroke-miterlimit="10" stroke-linecap="round"/>
    <path d="M159.217 59.1135C159.217 59.1135 152.168 84.2789 151.966 92.3521L157.126 123.53C157.126 123.53 162.05 125.962 167.176 124.003C167.378 123.936 164.579 107.823 164.377 91.2374L179.081 60.3971L159.217 59.1135Z" fill="black"/>
    <path d="M185.657 61.6806L184.612 92.048L196.213 123.766C196.213 123.766 191.357 127.888 185.219 124.138L172.64 93.9058L173.921 71.9156L168.424 68.6053L167.615 59.0796L185.657 61.6806Z" fill="black"/>
    <path d="M165.287 56.1408L170.852 60.3294L178.878 51.3779L159.419 54.1816L164.174 60.4983L165.287 56.1408Z" fill="white"/>
    <path d="M188.018 122.179L187.006 125.861C187.006 125.861 179.621 133.9 180.7 133.9C181.779 133.9 193.92 128.935 193.92 128.935L192.369 121.301L188.018 122.179Z" fill="black"/>
    <path d="M181.206 51.9524C181.206 51.9524 184.41 59.8229 182.083 92.8588C182.083 92.8588 190.143 110.66 194.359 124.746" stroke="#424242" stroke-width="0.36" stroke-miterlimit="10" stroke-linecap="round"/>
    <path d="M169.469 69.3823L161.408 91.8792L164.848 124.712" stroke="#424242" stroke-width="0.36" stroke-miterlimit="10" stroke-linecap="round"/>
    <path d="M134.328 53.3033C134.328 53.3033 134.496 54.0802 132.743 54.6882C130.989 55.2963 129.977 55.0936 129.977 55.0936C129.977 55.0936 126.065 50.4659 125.896 50.3307C125.728 50.1618 126.031 48.4053 127.178 47.696C127.886 47.2568 130.584 47.9662 132.641 48.5742C134.058 49.0134 134.935 50.4321 134.699 51.8846C134.564 52.4588 134.462 52.9655 134.328 53.3033Z" fill="#DB9C7F"/>
    <path d="M131.124 52.0533C131.124 52.0533 127.92 51.5804 126.571 50.4657C126.571 50.4657 124.547 50.0604 124.142 50.2968C123.704 50.567 123.367 50.9048 122.422 51.0737C121.512 51.2426 121.782 50.6008 122.76 49.7226C123.029 49.4861 123.771 48.5741 124.412 48.439C125.289 48.2701 127.178 47.5945 127.178 47.5945L130.955 52.1209" fill="#DB9C7F"/>
    <path d="M129.977 55.0935C129.977 55.0935 128.696 55.9042 128.223 55.8704C127.751 55.8367 127.347 55.5664 127.212 54.8233C127.212 54.8233 124.817 55.2624 125.559 53.4384C125.559 53.4384 124.109 53.2019 124.075 52.2561C124.075 52.2561 122.794 51.6143 123.063 50.5671C123.333 49.52 127.414 49.6213 127.414 49.6213L131.731 51.817L129.977 55.0935Z" fill="#DB9C7F"/>
    <path d="M129.067 55.2625C129.067 55.2625 130.281 54.1816 130.213 53.7425C130.146 53.3033 129.91 53.0669 129.64 53.1344C129.269 53.2358 127.852 54.3505 127.212 54.8234" stroke="#1A1C30" stroke-width="0.280764" stroke-miterlimit="10" stroke-linecap="round" stroke-linejoin="round"/>
    <path d="M125.559 53.4385C125.559 53.4385 128.83 52.9318 128.864 52.4251C128.898 51.9522 128.662 51.3104 127.987 51.4455C127.178 51.6144 124.851 52.1549 124.075 52.1549" stroke="#1A1C30" stroke-width="0.280764" stroke-miterlimit="10" stroke-linecap="round" stroke-linejoin="round"/>
    <path d="M129.64 53.134C129.64 53.134 130.247 52.7625 130.011 52.3571C129.774 51.9518 129.437 51.7829 128.763 51.9855" stroke="#1A1C30" stroke-width="0.280764" stroke-miterlimit="10" stroke-linecap="round" stroke-linejoin="round"/>
    <path d="M124.008 50.804C124.008 50.804 124.176 50.5675 124.446 50.3311" stroke="#1A1C30" stroke-width="0.280764" stroke-miterlimit="10" stroke-linecap="round" stroke-linejoin="round"/>
    <path d="M131.124 56.8841L131.056 56.9179C130.618 57.1544 130.044 57.0193 129.808 56.5801L121.31 41.4133L122.962 40.4675L131.461 55.6343C131.731 56.0735 131.562 56.6477 131.124 56.8841Z" fill="#333969"/>
    <path d="M125.491 43.8452L126.199 45.1288C126.402 45.4666 126.301 45.9057 125.997 46.0746L124.446 46.9529C124.142 47.1218 123.738 46.9867 123.535 46.6489L122.793 45.3315" fill="#333969"/>
    <path d="M122.22 31.3808C119.252 25.9086 115.576 22.1254 113.215 21.9227L113.283 21.416L112.069 22.2267C109.944 23.6792 111.091 30.0972 114.564 36.6166C118.072 43.1022 122.625 47.2232 124.716 45.7707L125.862 44.9938L125.525 44.5547C126.334 42.0212 125.087 36.7179 122.22 31.3808Z" fill="#333969"/>
    <path d="M125.796 45.0604C128.042 43.888 127.1 37.6267 123.692 31.0753C120.284 24.5239 115.7 20.1634 113.453 21.3359C111.207 22.5083 112.149 28.7697 115.557 35.321C118.966 41.8724 123.55 46.2329 125.796 45.0604Z" fill="#7584F1"/>
    <path d="M124.687 42.8205C126.253 41.995 125.257 37.0166 122.463 31.7008C119.67 26.3851 116.136 22.7451 114.57 23.5707C113.004 24.3962 114 29.3747 116.793 34.6904C119.587 40.0061 123.121 43.6461 124.687 42.8205Z" fill="#D3DDF7"/>
    <path d="M131.124 52.0536C131.124 52.0536 127.92 51.5807 126.571 50.4659C126.571 50.4659 124.547 50.0606 124.142 50.2971C123.704 50.5673 123.367 50.9051 122.422 51.074C121.512 51.2429 121.782 50.6011 122.76 49.7228C123.029 49.4864 123.771 48.5743 124.412 48.4392C125.289 48.2703 127.178 47.5947 127.178 47.5947L130.955 52.1211" fill="#DB9C7F"/>
    <path d="M131.123 52.0535C131.123 52.0535 127.92 51.5806 126.571 50.4659C126.571 50.4659 124.547 50.0605 124.142 50.297C123.704 50.5672 123.367 50.905 122.422 51.0739" stroke="#1A1C30" stroke-width="0.280764" stroke-miterlimit="10" stroke-linecap="round" stroke-linejoin="round"/>
    <path d="M122.254 31.3807C119.421 26.0774 115.913 22.5981 114.43 23.6115C114.328 23.6791 114.227 23.8142 114.126 23.9155C115.812 24.0169 118.78 27.2596 121.276 31.8536C123.906 36.7178 125.053 41.4468 124.075 42.9331C124.345 42.9331 124.547 42.8993 124.749 42.7642C126.233 41.7846 125.12 36.684 122.254 31.3807Z" fill="#333969"/>
    <path d="M121.565 35.3718C122.39 34.9373 121.855 32.2967 120.371 29.4737C118.888 26.6508 117.017 24.7146 116.193 25.1491C115.369 25.5836 115.903 28.2242 117.387 31.0472C118.871 33.8701 120.741 35.8063 121.565 35.3718Z" fill="white"/>
    <path d="M176.922 38.3732L174.562 29.9622C173.685 26.8883 172.201 24.0171 170.177 21.5175C166.636 17.0924 157.362 17.4978 157.362 17.4978L150.212 22.666C150.178 22.666 150.178 22.6997 150.144 22.6997C145.929 25.0305 145.153 28.6111 145.288 34.1508L145.558 41.616L150.414 36.9883L151.628 38.6772C151.628 38.6434 151.628 38.5759 151.628 38.5421L152.202 39.4541L151.628 38.6772C151.797 40.2311 152.606 44.1494 156.316 45.9735L158.441 49.3176L157.868 53.9454C177.799 61.2079 182.79 46.9531 182.79 46.9531L176.922 38.3732Z" fill="#9EC68A"/>
    <path d="M149.369 36.2112L151.966 39.4202C151.966 39.4202 151.595 44.3519 156.553 45.9396" stroke="black" stroke-width="0.36" stroke-miterlimit="10" stroke-linecap="round"/>
    <path d="M169.166 42.7305L153.989 55.9719C153.989 55.9719 156.991 60.1942 158.34 60.3294L176.518 48.7431" fill="#9EC68A"/>
    <path d="M158.508 51.9186C158.508 51.9186 166.771 42.5955 169.638 41.2444" stroke="black" stroke-width="0.36" stroke-miterlimit="10" stroke-linecap="round"/>
    <path d="M165.253 32.6646C165.253 32.6646 165.658 34.7589 168.288 42.0889" stroke="black" stroke-width="0.36" stroke-miterlimit="10" stroke-linecap="round"/>
    <path d="M160.464 59.1473C160.464 59.1473 177.462 48.3042 177.597 45.1627C177.732 41.9875 173.314 27.3274 173.314 27.3274" stroke="black" stroke-width="0.36" stroke-miterlimit="10" stroke-linecap="round"/>
    <path d="M162.319 43.7775C162.319 43.7775 166.4 44.149 167.681 40.4333" stroke="black" stroke-width="0.36" stroke-miterlimit="10" stroke-linecap="round"/>
    <path d="M145.76 41.008C145.76 41.008 146.873 39.8933 148.02 41.1431" stroke="black" stroke-width="0.36" stroke-miterlimit="10" stroke-linecap="round"/>
    <path d="M132.406 48.4729L134.8 47.3582C134.8 47.3582 137.734 50.5672 136.689 53.3033L133.755 54.1815C133.755 54.1477 135.104 51.1414 132.406 48.4729Z" fill="white"/>
    <path d="M154.967 54.2832C154.967 54.2832 158.137 55.6344 160.363 59.519L157.935 61.3768C157.935 61.3768 154.933 57.0869 152.876 56.4113L154.967 54.2832Z" fill="white"/>
    <path d="M152.303 17.0247L162.252 17.7678C162.252 17.7678 162.623 23.24 156.62 28.1042L153.922 25.4694L152.438 28.6784C152.438 28.6784 150.144 27.3948 149.841 23.6791L150.313 19.1865L152.303 17.0247Z" fill="white"/>
    <path d="M157.362 17.4976C157.733 17.8016 157.902 18.2745 157.8 18.7474C157.497 20.5377 156.519 24.8615 154.563 25.4019C152.101 26.0775 150.583 21.2471 150.583 21.2471L151.797 12.7686L157.362 17.4976Z" fill="#DB9C7F"/>
    <path d="M149.605 19.5241L149.572 20.7739C149.538 20.7739 149.133 24.422 150.347 24.5572C155.44 23.6451 155.777 18.7809 156.216 13.9843C156.216 13.9505 149.1 18.5445 149.605 19.5241Z" fill="black"/>
    <path d="M141.107 10.4375C141.107 10.4375 139.859 22.294 147.211 24.3545C154.563 26.3813 156.35 14.3559 156.081 10.2011C155.811 6.04626 153.99 4.49242 148.83 4.32353C141.208 4.0533 141.107 10.4375 141.107 10.4375Z" fill="#DB9C7F"/>
    <path d="M141.039 13.005C141.039 13.005 141.174 9.52575 142.691 7.56656C142.691 7.56656 144.816 12.397 153.922 13.3766L156.586 12.8023C156.586 12.8023 157.665 7.22877 153.854 5.03313C150.043 2.83749 144.209 4.05354 142.354 6.01272C139.15 9.35685 141.039 13.005 141.039 13.005Z" fill="black"/>
    <path d="M152.135 12.7007L153.72 15.8421L154.833 12.3291L152.135 12.7007Z" fill="black"/>
    <path d="M157.656 15.5383C158.122 13.8867 157.57 12.2845 156.423 11.9598C155.276 11.635 153.968 12.7107 153.502 14.3623C153.036 16.0139 153.588 17.6161 154.735 17.9408C155.882 18.2656 157.19 17.1899 157.656 15.5383Z" fill="#DB9C7F"/>
    <path d="M156.553 17.903C156.553 18.5111 156.047 19.0177 155.44 19.0177C154.833 19.0177 154.327 18.5111 154.327 17.903C154.327 17.295 154.833 16.7883 155.44 16.7883C156.047 16.7883 156.553 17.295 156.553 17.903Z" fill="white"/>
    <path d="M153.416 6.48567C153.416 6.48567 154.799 -0.74305 158.037 0.641892C161.274 2.02683 162.724 8.95154 159.655 9.49201C156.586 10.0325 154.192 8.57997 154.192 8.57997L153.416 6.48567Z" fill="black"/>
    <path d="M153.45 8.5459C153.45 8.5459 158.779 13.0047 160.532 8.88369" stroke="black" stroke-width="0.36" stroke-miterlimit="10" stroke-linecap="round"/>
    <path d="M173.651 71.7468L167.446 68.2676" stroke="#424242" stroke-width="0.36" stroke-miterlimit="10" stroke-linecap="round"/>
    <path d="M33.2194 25.8414C39.897 26.0103 45.4279 31.3811 45.8326 38.0694C46.0687 41.9878 44.551 45.5683 41.9879 48.1018C41.6169 48.4733 41.4483 49.0138 41.5158 49.5205L42.4938 55.2292L36.5919 51.7837C36.2546 51.581 35.8499 51.5135 35.4789 51.581C34.0288 51.885 32.5111 51.9188 30.926 51.6824C25.0916 50.8041 20.5387 45.9399 19.9991 40.0624C19.2234 32.1918 25.4963 25.6049 33.2194 25.8414Z" fill="#D3DDF7"/>
    <path d="M32.2747 43.3388L32.241 40.2311C32.6794 40.1298 33.1178 39.9609 33.4888 39.792C33.8598 39.6231 34.197 39.4204 34.4668 39.1839C34.7366 38.9475 34.9727 38.6773 35.1751 38.407C35.3774 38.103 35.5123 37.799 35.6135 37.4612C35.7147 37.1234 35.7484 36.7856 35.7484 36.4141C35.7484 35.8736 35.6135 35.4007 35.3774 34.9278C35.1076 34.4549 34.7366 34.0833 34.2645 33.8131C33.7923 33.5091 33.219 33.3739 32.5445 33.3739C31.8363 33.3739 31.1618 33.5766 30.5547 33.9482C29.9476 34.3535 29.4755 34.9953 29.172 35.9412L28.8347 35.7047C29.1045 34.8264 29.5767 34.1171 30.2512 33.6442C30.9257 33.1713 31.6676 32.9348 32.5108 32.9348C33.219 32.9348 33.8598 33.1037 34.3994 33.4077C34.939 33.7117 35.3774 34.1171 35.6809 34.6575C35.9845 35.1642 36.1531 35.7723 36.1531 36.4141C36.1531 36.9207 36.0856 37.3599 35.917 37.799C35.7484 38.2381 35.5123 38.6097 35.2088 38.9813C34.9053 39.3528 34.5343 39.6568 34.1296 39.9271C33.6911 40.1973 33.219 40.4 32.6794 40.5351L32.6457 43.3725H32.2747V43.3388ZM32.0386 45.6357C32.0386 45.4668 32.0723 45.3317 32.1735 45.2304C32.2747 45.1291 32.3759 45.0615 32.5108 45.0615C32.6794 45.0615 32.8143 45.0953 32.8817 45.1966C32.9492 45.298 32.9829 45.4331 32.9829 45.602C32.9829 45.7371 32.9492 45.8722 32.848 45.9735C32.7806 46.0749 32.6457 46.1424 32.477 46.1424C32.3084 46.1424 32.2072 46.1086 32.1061 46.0073C32.1061 45.9735 32.0386 45.8384 32.0386 45.6357Z" fill="black"/>
</svg>
