<svg width="182" height="146" viewBox="0 0 182 146" fill="none" xmlns="http://www.w3.org/2000/svg">
    <mask id="mask0_76_18" style="mask-type:luminance" maskUnits="userSpaceOnUse" x="0" y="0" width="182" height="146">
        <path d="M182 0H0.51416V146H182V0Z" fill="white"/>
    </mask>
    <g mask="url(#mask0_76_18)">
        <path d="M113.076 77.9383C113.076 91.3455 108.488 103.672 100.798 113.392C99.9375 114.498 98.9997 115.577 98.0612 116.605C87.7899 127.799 73.0877 134.832 56.7951 134.832C51.6858 134.832 46.7589 134.147 42.0667 132.857L15.373 146L18.3969 119.476C14.7994 116.052 11.6192 112.18 9.01239 107.939C3.61626 99.2205 0.51416 88.9485 0.51416 77.9383C0.51416 76.0419 0.592364 74.1718 0.774841 72.328C2.91242 50.2291 17.5627 31.8442 37.4787 24.4954C43.1876 22.3883 49.3397 21.1766 55.7524 21.0713C56.0913 21.0713 56.4302 21.0713 56.7951 21.0713C58.9588 21.0713 61.0964 21.203 63.2079 21.4401C69.8031 22.1776 76.0334 24.1003 81.742 26.945C81.9508 27.0504 82.1596 27.1557 82.3676 27.2874C100.225 36.5063 112.529 55.0493 113.05 76.5424C113.076 76.9901 113.076 77.4642 113.076 77.9383Z" fill="#22BE0D"/>
        <path opacity="0.2" d="M113.077 77.9391C113.077 91.3456 108.489 103.673 100.799 113.392C80.0482 111.522 61.3577 90.5033 61.3577 67.7456C61.3577 51.8892 70.0904 36.0855 82.3683 27.2881C100.226 36.507 112.529 55.0499 113.05 76.543C113.077 76.9908 113.077 77.4649 113.077 77.9391Z" fill="black"/>
        <path opacity="0.1" d="M37.4787 24.4956C16.4678 46.1467 9.24694 81.7052 8.98627 107.939C3.61627 99.2211 0.51416 88.9483 0.51416 77.9389C0.51416 53.3901 15.9204 32.4501 37.4787 24.4956Z" fill="white"/>
        <path opacity="0.1" d="M63.2079 21.4141C57.0037 42.9598 23.8712 66.4811 0.774902 72.3284C2.91249 50.2295 17.5628 31.8445 37.4787 24.4958C43.1876 22.3886 49.3397 21.177 55.7524 21.0717C56.0914 21.0717 56.4302 21.0717 56.7952 21.0717C58.9589 21.0454 61.0964 21.177 63.2079 21.4141Z" fill="white"/>
        <path d="M33.1778 83.3387C35.4382 83.3387 37.2706 81.4874 37.2706 79.2029C37.2706 76.9194 35.4382 75.0679 33.1778 75.0679C30.9175 75.0679 29.0852 76.9194 29.0852 79.2029C29.0852 81.4874 30.9175 83.3387 33.1778 83.3387Z" fill="white"/>
        <path d="M48.8705 83.3387C51.1309 83.3387 52.9632 81.4874 52.9632 79.2029C52.9632 76.9194 51.1309 75.0679 48.8705 75.0679C46.6102 75.0679 44.7778 76.9194 44.7778 79.2029C44.7778 81.4874 46.6102 83.3387 48.8705 83.3387Z" fill="white"/>
        <path d="M64.5632 83.3387C66.8235 83.3387 68.6558 81.4874 68.6558 79.2029C68.6558 76.9194 66.8235 75.0679 64.5632 75.0679C62.3028 75.0679 60.4705 76.9194 60.4705 79.2029C60.4705 81.4874 62.3028 83.3387 64.5632 83.3387Z" fill="white"/>
        <path d="M182.001 56.8671C182.001 62.8462 181.088 68.6145 179.394 74.0404C178.507 76.9115 177.387 79.6508 176.057 82.2846C173.059 88.3432 168.992 93.7947 164.144 98.4048L167.168 124.955L140.5 111.758C135.808 113.049 130.855 113.734 125.746 113.734C94.6723 113.734 69.4646 88.264 69.4646 56.8671C69.4646 34.0307 82.7852 14.3287 102.023 5.26791C102.754 4.9255 103.51 4.58308 104.266 4.267C110.861 1.5277 118.134 0 125.72 0C156.819 0 182.001 25.4703 182.001 56.8671Z" fill="#13544E"/>
        <path opacity="0.1" d="M182.001 56.8671C182.001 62.8461 181.088 68.6145 179.394 74.0405C178.507 76.9115 177.387 79.6508 176.057 82.2846C144.932 68.035 113.546 33.2932 104.24 4.267C110.861 1.5277 118.134 0 125.72 0C156.819 0 182.001 25.4703 182.001 56.8671Z" fill="white"/>
        <path d="M105.308 62.477C108.245 62.477 110.626 60.0713 110.626 57.1037C110.626 54.1361 108.245 51.7305 105.308 51.7305C102.371 51.7305 99.9899 54.1361 99.9899 57.1037C99.9899 60.0713 102.371 62.477 105.308 62.477Z" fill="white"/>
        <path d="M125.72 62.477C128.656 62.477 131.037 60.0713 131.037 57.1037C131.037 54.1361 128.656 51.7305 125.72 51.7305C122.782 51.7305 120.401 54.1361 120.401 57.1037C120.401 60.0713 122.782 62.477 125.72 62.477Z" fill="white"/>
        <path d="M146.131 62.477C149.068 62.477 151.449 60.0713 151.449 57.1037C151.449 54.1361 149.068 51.7305 146.131 51.7305C143.194 51.7305 140.813 54.1361 140.813 57.1037C140.813 60.0713 143.194 62.477 146.131 62.477Z" fill="white"/>
    </g>
</svg>
