<svg width="18" height="18" viewBox="0 0 18 18" fill="none" xmlns="http://www.w3.org/2000/svg">
    <g clip-path="url(#clip0_7930_3384)">
        <path d="M12.75 0.9375H2.25C1.90241 0.939157 1.56954 1.07797 1.32375 1.32375C1.07797 1.56954 0.939157 1.90241 0.9375 2.25V15.75C0.939157 16.0976 1.07797 16.4305 1.32375 16.6762C1.56954 16.922 1.90241 17.0608 2.25 17.0625H13.5C13.5824 17.0625 13.665 17.0625 13.7476 17.055C13.7564 17.0461 13.7665 17.0385 13.7776 17.0325C13.9146 16.6574 14.0052 16.2671 14.0475 15.87C13.8685 15.915 13.6846 15.9377 13.5 15.9375C12.8535 15.9375 12.2335 15.6807 11.7764 15.2236C11.3193 14.7665 11.0625 14.1465 11.0625 13.5C11.0625 12.8535 11.3193 12.2335 11.7764 11.7764C12.2335 11.3193 12.8535 11.0625 13.5 11.0625C13.6896 11.0618 13.8785 11.0845 14.0625 11.13V2.25C14.0608 1.90241 13.922 1.56954 13.6762 1.32375C13.4305 1.07797 13.0976 0.939157 12.75 0.9375ZM4.125 3.9375H10.875C11.0242 3.9375 11.1673 3.99676 11.2727 4.10225C11.3782 4.20774 11.4375 4.35082 11.4375 4.5C11.4375 4.64918 11.3782 4.79226 11.2727 4.89775C11.1673 5.00324 11.0242 5.0625 10.875 5.0625H4.125C3.97582 5.0625 3.83274 5.00324 3.72725 4.89775C3.62176 4.79226 3.5625 4.64918 3.5625 4.5C3.5625 4.35082 3.62176 4.20774 3.72725 4.10225C3.83274 3.99676 3.97582 3.9375 4.125 3.9375ZM4.125 6.9375H10.875C11.0242 6.9375 11.1673 6.99676 11.2727 7.10225C11.3782 7.20774 11.4375 7.35082 11.4375 7.5C11.4375 7.64918 11.3782 7.79226 11.2727 7.89775C11.1673 8.00324 11.0242 8.0625 10.875 8.0625H4.125C3.97582 8.0625 3.83274 8.00324 3.72725 7.89775C3.62176 7.79226 3.5625 7.64918 3.5625 7.5C3.5625 7.35082 3.62176 7.20774 3.72725 7.10225C3.83274 6.99676 3.97582 6.9375 4.125 6.9375ZM8.25 14.0625H4.125C3.97582 14.0625 3.83274 14.0032 3.72725 13.8977C3.62176 13.7923 3.5625 13.6492 3.5625 13.5C3.5625 13.3508 3.62176 13.2077 3.72725 13.1023C3.83274 12.9968 3.97582 12.9375 4.125 12.9375H8.25C8.39918 12.9375 8.54226 12.9968 8.64775 13.1023C8.75324 13.2077 8.8125 13.3508 8.8125 13.5C8.8125 13.6492 8.75324 13.7923 8.64775 13.8977C8.54226 14.0032 8.39918 14.0625 8.25 14.0625ZM9 11.0625H4.125C3.97582 11.0625 3.83274 11.0032 3.72725 10.8977C3.62176 10.7923 3.5625 10.6492 3.5625 10.5C3.5625 10.3508 3.62176 10.2077 3.72725 10.1023C3.83274 9.99676 3.97582 9.9375 4.125 9.9375H9C9.14918 9.9375 9.29226 9.99676 9.39775 10.1023C9.50324 10.2077 9.5625 10.3508 9.5625 10.5C9.5625 10.6492 9.50324 10.7923 9.39775 10.8977C9.29226 11.0032 9.14918 11.0625 9 11.0625Z" fill="#22BE0D"/>
        <path d="M14.0627 9.98244C13.5969 9.90795 13.1209 9.92671 12.6624 10.0376C12.2038 10.1485 11.7719 10.3494 11.3916 10.6286C11.0113 10.9077 10.6903 11.2596 10.447 11.6639C10.2038 12.0681 10.0433 12.5166 9.97479 12.9833C9.90628 13.4501 9.93113 13.9258 10.0479 14.3828C10.1647 14.8399 10.3711 15.2692 10.6551 15.6459C10.9391 16.0226 11.2951 16.3391 11.7024 16.5771C12.1097 16.8151 12.5602 16.9699 13.0278 17.0324C13.1843 17.0536 13.3422 17.0636 13.5002 17.0624C13.5826 17.0624 13.6652 17.0624 13.7478 17.0549C14.6203 16.9941 15.44 16.6144 16.0507 15.9881C16.6613 15.3619 17.0203 14.533 17.0592 13.6591C17.0981 12.7853 16.8142 11.9277 16.2617 11.2497C15.7091 10.5717 14.9264 10.1206 14.0627 9.98244ZM14.0477 15.8699C13.8687 15.915 13.6848 15.9376 13.5002 15.9374C12.8537 15.9374 12.2337 15.6806 11.7766 15.2235C11.3195 14.7664 11.0627 14.1464 11.0627 13.4999C11.0627 12.8535 11.3195 12.2335 11.7766 11.7764C12.2337 11.3193 12.8537 11.0624 13.5002 11.0624C13.6898 11.0618 13.8787 11.0845 14.0627 11.1299C14.5977 11.256 15.0742 11.5594 15.4147 11.9909C15.7551 12.4223 15.9395 12.9563 15.9378 13.5059C15.9361 14.0555 15.7483 14.5883 15.4051 15.0176C15.0619 15.4469 14.5834 15.7473 14.0477 15.8699Z" fill="#22BE0D"/>
        <path d="M13.1249 14.8125C13.051 14.8125 12.9779 14.798 12.9096 14.7698C12.8414 14.7415 12.7794 14.7 12.7272 14.6477L11.9772 13.8977C11.9247 13.8455 11.883 13.7835 11.8544 13.7152C11.8259 13.6468 11.8112 13.5736 11.811 13.4995C11.8109 13.4255 11.8254 13.3522 11.8537 13.2837C11.8819 13.2153 11.9234 13.1532 11.9758 13.1008C12.0281 13.0485 12.0903 13.007 12.1587 12.9787C12.2271 12.9504 12.3005 12.9359 12.3745 12.9361C12.4485 12.9362 12.5218 12.951 12.5901 12.9795C12.6584 13.008 12.7205 13.0497 12.7726 13.1023L13.1249 13.4545L14.2272 12.3523C14.3328 12.2474 14.4757 12.1887 14.6245 12.189C14.7733 12.1892 14.916 12.2485 15.0212 12.3537C15.1264 12.4589 15.1856 12.6016 15.1859 12.7504C15.1862 12.8992 15.1275 13.042 15.0226 13.1477L13.5226 14.6477C13.4705 14.7 13.4085 14.7415 13.3402 14.7698C13.272 14.798 13.1988 14.8125 13.1249 14.8125Z" fill="#22BE0D"/>
    </g>
    <defs>
        <clipPath id="clip0_7930_3384">
            <rect width="18" height="18" fill="white"/>
        </clipPath>
    </defs>
</svg>
