<svg width="24" height="24" viewBox="0 0 24 24" fill="none" xmlns="http://www.w3.org/2000/svg">
<path d="M2 4C2 2.89543 2.89543 2 4 2H8C9.10457 2 10 2.89543 10 4V8C10 9.10457 9.10457 10 8 10H4C2.89543 10 2 9.10457 2 8V4Z" stroke="#5B5B5B" stroke-width="1.5" stroke-linejoin="round"/>
<path d="M2 16C2 14.8954 2.89543 14 4 14H8C9.10457 14 10 14.8954 10 16V20C10 21.1046 9.10457 22 8 22H4C2.89543 22 2 21.1046 2 20V16Z" stroke="#5B5B5B" stroke-width="1.5" stroke-linejoin="round"/>
<path d="M14 16C14 14.8954 14.8954 14 16 14H20C21.1046 14 22 14.8954 22 16V20C22 21.1046 21.1046 22 20 22H16C14.8954 22 14 21.1046 14 20V16Z" stroke="#5B5B5B" stroke-width="1.5" stroke-linejoin="round"/>
<path d="M13.7574 7.41421C12.9763 6.63317 12.9763 5.36683 13.7574 4.58579L16.5858 1.75736C17.3668 0.976311 18.6332 0.976311 19.4142 1.75736L22.2426 4.58579C23.0237 5.36683 23.0237 6.63317 22.2426 7.41421L19.4142 10.2426C18.6332 11.0237 17.3668 11.0237 16.5858 10.2426L13.7574 7.41421Z" stroke="#5B5B5B" stroke-width="1.5" stroke-linejoin="round"/>
</svg>
