<svg width="24" height="24" viewBox="0 0 24 24" fill="none" xmlns="http://www.w3.org/2000/svg">
<path fill-rule="evenodd" clip-rule="evenodd" d="M13.7574 4.58584C12.9763 5.36689 12.9763 6.63322 13.7574 7.41427L16.5858 10.2427C17.3668 11.0237 18.6332 11.0237 19.4142 10.2427L22.2426 7.41427C23.0237 6.63322 23.0237 5.36689 22.2426 4.58584L19.4142 1.75742C18.6332 0.976369 17.3668 0.976369 16.5858 1.75742L13.7574 4.58584ZM4 2.00006C2.89543 2.00006 2 2.89549 2 4.00006V8.00006C2 9.10463 2.89543 10.0001 4 10.0001H8C9.10457 10.0001 10 9.10463 10 8.00006V4.00006C10 2.89549 9.10457 2.00006 8 2.00006H4ZM2 16.0001C2 14.8955 2.89543 14.0001 4 14.0001H8C9.10457 14.0001 10 14.8955 10 16.0001V20.0001C10 21.1046 9.10457 22.0001 8 22.0001H4C2.89543 22.0001 2 21.1046 2 20.0001V16.0001ZM16 14.0001C14.8954 14.0001 14 14.8955 14 16.0001V20.0001C14 21.1046 14.8954 22.0001 16 22.0001H20C21.1046 22.0001 22 21.1046 22 20.0001V16.0001C22 14.8955 21.1046 14.0001 20 14.0001H16Z" fill="#22BE0D"/>
</svg>
