<svg width="18" height="18" viewBox="0 0 18 18" fill="none" xmlns="http://www.w3.org/2000/svg">
<path fill-rule="evenodd" clip-rule="evenodd" d="M12.7623 18H5.23768C3.15981 18 1.47537 16.3926 1.47537 14.4097V10.0197C1.47537 9.38233 1.21003 8.77103 0.737719 8.32032C-0.356575 7.27605 -0.214317 5.54584 1.03726 4.67722L6.78711 0.686696C8.10637 -0.228899 9.89363 -0.228898 11.2129 0.686696L16.9627 4.67722C18.2143 5.54584 18.3566 7.27605 17.2623 8.32032C16.79 8.77103 16.5246 9.38233 16.5246 10.0197V14.4097C16.5246 16.3926 14.8402 18 12.7623 18ZM7.2 13.725C6.82721 13.725 6.525 14.0272 6.525 14.4C6.525 14.7728 6.82721 15.075 7.2 15.075H10.8C11.1728 15.075 11.475 14.7728 11.475 14.4C11.475 14.0272 11.1728 13.725 10.8 13.725H7.2Z" fill="#22BE0D"/>
</svg>
