<svg width="18" height="18" viewBox="0 0 18 18" fill="none" xmlns="http://www.w3.org/2000/svg">
<path d="M11 0H2.99999C2.20508 0.00237409 1.44339 0.319207 0.8813 0.881302C0.319206 1.4434 0.00237408 2.20508 0 3V11C0.00237408 11.7949 0.319206 12.5566 0.8813 13.1187C1.44339 13.6808 2.20508 13.9976 2.99999 14H11C11.7949 13.9976 12.5566 13.6808 13.1187 13.1187C13.6808 12.5566 13.9976 11.7949 14 11V3C13.9976 2.20508 13.6808 1.4434 13.1187 0.881302C12.5566 0.319207 11.7949 0.00237409 11 0ZM8.99998 8H7.99998V9C7.99998 9.26522 7.89462 9.51957 7.70709 9.70711C7.51955 9.89464 7.2652 10 6.99998 10C6.73477 10 6.48041 9.89464 6.29288 9.70711C6.10534 9.51957 5.99998 9.26522 5.99998 9V8H4.99999C4.73477 8 4.48042 7.89464 4.29288 7.70711C4.10535 7.51957 3.99999 7.26522 3.99999 7C3.99999 6.73478 4.10535 6.48043 4.29288 6.29289C4.48042 6.10536 4.73477 6 4.99999 6H5.99998V5C5.99998 4.73478 6.10534 4.48043 6.29288 4.29289C6.48041 4.10536 6.73477 4 6.99998 4C7.2652 4 7.51955 4.10536 7.70709 4.29289C7.89462 4.48043 7.99998 4.73478 7.99998 5V6H8.99998C9.26519 6 9.51955 6.10536 9.70708 6.29289C9.89462 6.48043 9.99997 6.73478 9.99997 7C9.99997 7.26522 9.89462 7.51957 9.70708 7.70711C9.51955 7.89464 9.26519 8 8.99998 8Z" fill="#22BE0D"/>
<path d="M13 18H4C3.73478 18 3.48043 17.8946 3.29289 17.7071C3.10536 17.5196 3 17.2652 3 17C3 16.7348 3.10536 16.4804 3.29289 16.2929C3.48043 16.1054 3.73478 16 4 16H13C13.7956 16 14.5587 15.6839 15.1213 15.1213C15.6839 14.5587 16 13.7956 16 13V4C16 3.73478 16.1053 3.48043 16.2929 3.29289C16.4804 3.10536 16.7347 3 17 3C17.2652 3 17.5195 3.10536 17.7071 3.29289C17.8946 3.48043 18 3.73478 18 4V13C17.9984 14.3256 17.4711 15.5964 16.5337 16.5338C15.5964 17.4711 14.3256 17.9984 13 18Z" fill="#22BE0D"/>
</svg>
