<svg width="10" height="10" viewBox="0 0 10 10" fill="none" xmlns="http://www.w3.org/2000/svg">
    <path fill-rule="evenodd" clip-rule="evenodd" d="M3.92007 1.53126C3.74036 1.98421 3.59409 2.5344 3.49526 3.15208C3.97345 3.10828 4.47869 3.08496 5.00001 3.08496C5.52134 3.08496 6.02658 3.10828 6.50477 3.15208C6.40594 2.5344 6.25967 1.98421 6.07996 1.53126C5.90723 1.09591 5.71105 0.769304 5.51265 0.557797C5.315 0.347098 5.14164 0.276331 5.00001 0.276331C4.85838 0.276331 4.68502 0.347098 4.48738 0.557797C4.28897 0.769304 4.0928 1.09591 3.92007 1.53126ZM3.21463 1.24678C2.99039 1.81195 2.81833 2.49275 2.71288 3.24539C2.19378 3.32257 1.72006 3.42555 1.30919 3.54982C0.831118 3.69441 0.416563 3.87419 0.113045 4.09122C0.0746995 4.11864 0.0368508 4.14763 2.29221e-05 4.17818C0.335047 2.09043 1.92557 0.426799 3.96545 6.32205e-07C3.95533 0.0103808 3.9453 0.0208754 3.93535 0.0314793C3.64896 0.336788 3.40855 0.758023 3.21463 1.24678ZM6.03457 0C6.04469 0.0103804 6.05473 0.0208752 6.06468 0.0314793C6.35107 0.336788 6.59148 0.758023 6.7854 1.24678C7.00964 1.81195 7.18169 2.49275 7.28715 3.24539C7.80625 3.32257 8.27997 3.42555 8.69084 3.54982C9.16891 3.69441 9.58346 3.87419 9.88698 4.09123C9.92533 4.11865 9.96318 4.14763 10 4.17818C9.66498 2.09043 8.07446 0.426798 6.03457 0ZM10 5.82167C9.96319 5.85223 9.92534 5.88122 9.88698 5.90864C9.58346 6.12568 9.16891 6.30546 8.69084 6.45005C8.27997 6.57432 7.80625 6.6773 7.28715 6.75448C7.18169 7.50712 7.00964 8.18792 6.7854 8.75308C6.59148 9.24185 6.35107 9.66308 6.06468 9.96839C6.05468 9.97905 6.04459 9.98959 6.03442 10C8.07443 9.57327 9.66505 7.90953 10 5.82167ZM3.9656 10C3.95543 9.98959 3.94535 9.97904 3.93535 9.96839C3.64896 9.66308 3.40855 9.24185 3.21463 8.75308C2.99039 8.18792 2.81833 7.50712 2.71288 6.75448C2.19378 6.6773 1.72005 6.57432 1.30919 6.45005C0.831118 6.30546 0.416563 6.12568 0.113045 5.90864C0.0746915 5.88122 0.036835 5.85223 0 5.82167C0.334983 7.90954 1.9256 9.57327 3.9656 10ZM1.52751 5.71636C1.84975 5.81383 2.22051 5.89831 2.62916 5.96611C2.60603 5.65202 2.59402 5.32906 2.59402 4.99993C2.59402 4.6708 2.60603 4.34785 2.62916 4.03376C2.22052 4.10156 1.84975 4.18604 1.52751 4.2835C1.08895 4.41614 0.761717 4.56648 0.552605 4.71601C0.333624 4.8726 0.314666 4.97409 0.314666 4.99993C0.314666 5.02577 0.333624 5.12727 0.552605 5.28386C0.761717 5.43339 1.08895 5.58372 1.52751 5.71636ZM3.35381 4.99993C3.35381 5.36823 3.36974 5.72591 3.39969 6.06893C3.89915 6.12056 4.43743 6.14892 5.00001 6.14892C5.56259 6.14892 6.10088 6.12057 6.60034 6.06893C6.63029 5.72591 6.64622 5.36823 6.64622 4.99993C6.64622 4.63164 6.63029 4.27396 6.60034 3.93094C6.10088 3.8793 5.56259 3.85095 5.00001 3.85095C4.43743 3.85095 3.89915 3.8793 3.39969 3.93094C3.36974 4.27396 3.35381 4.63164 3.35381 4.99993ZM3.92007 8.4686C3.74036 8.01566 3.59409 7.46547 3.49526 6.84779C3.97345 6.89159 4.47869 6.91491 5.00001 6.91491C5.52134 6.91491 6.02658 6.89159 6.50477 6.84779C6.40594 7.46547 6.25967 8.01566 6.07996 8.4686C5.90723 8.90395 5.71105 9.23056 5.51265 9.44207C5.315 9.65277 5.14164 9.72354 5.00001 9.72354C4.85838 9.72354 4.68502 9.65277 4.48738 9.44207C4.28897 9.23056 4.0928 8.90395 3.92007 8.4686ZM8.47252 5.71636C8.15027 5.81383 7.77951 5.89831 7.37086 5.96611C7.39399 5.65202 7.406 5.32906 7.406 4.99993C7.406 4.6708 7.39399 4.34785 7.37086 4.03376C7.77951 4.10156 8.15027 4.18604 8.47252 4.2835C8.91108 4.41615 9.23831 4.56648 9.44742 4.71601C9.6664 4.8726 9.68536 4.97409 9.68536 4.99993C9.68536 5.02578 9.6664 5.12727 9.44742 5.28386C9.23831 5.43339 8.91108 5.58372 8.47252 5.71636Z" fill="#22BE0D"/>
</svg>
