<svg width="18" height="18" viewBox="0 0 18 18" fill="none" xmlns="http://www.w3.org/2000/svg">
<path d="M17.94 16.4809C17.3984 14.9557 16.8425 13.4189 16.308 11.8889C16.8601 10.6054 17.0946 9.20747 16.9915 7.8138C15.7795 -2.76463 0.847079 -2.53468 0.0152496 8.09329C-0.357483 14.1859 6.17421 18.7764 11.7513 16.3597C13.3349 16.8826 14.9251 17.4136 16.5079 17.9479C16.7103 18.011 16.9261 18.0169 17.1315 17.9649C17.337 17.9129 17.5241 17.8051 17.6722 17.6534C17.8204 17.5016 17.9238 17.3118 17.971 17.1049C18.0183 16.898 18.0076 16.6821 17.94 16.4809ZM5.27412 10.2495H3.97685C3.85364 10.2492 3.73558 10.2 3.64846 10.1127C3.56134 10.0254 3.51224 9.9072 3.51187 9.7838V8.2376C3.51028 8.1971 3.51302 7.17332 3.51187 7.17109C3.51369 7.04877 3.56348 6.93208 3.65048 6.84622C3.73749 6.76036 3.85473 6.71224 3.97686 6.71224C4.099 6.71225 4.21623 6.76038 4.30323 6.84624C4.39023 6.93211 4.44002 7.0488 4.44182 7.17112V7.56695C4.44161 7.9951 4.44198 8.89584 4.44182 9.31807H5.27412C5.39579 9.32057 5.51163 9.37073 5.59679 9.4578C5.68196 9.54487 5.72966 9.6619 5.72966 9.78379C5.72966 9.90568 5.68196 10.0227 5.59679 10.1098C5.51163 10.1969 5.39579 10.247 5.27412 10.2495ZM7.08753 9.18769V9.7838C7.08501 9.90564 7.03491 10.0216 6.94798 10.1069C6.86105 10.1922 6.74422 10.2399 6.62255 10.2399C6.50087 10.2399 6.38404 10.1922 6.29712 10.1069C6.2102 10.0216 6.16011 9.90561 6.15759 9.78376C6.15987 9.73349 6.15594 8.55411 6.15759 8.46113V7.1711C6.15759 7.04758 6.20658 6.92913 6.29378 6.84179C6.38098 6.75445 6.49924 6.70538 6.62256 6.70538C6.74588 6.70538 6.86415 6.75445 6.95135 6.84179C7.03855 6.92913 7.08754 7.04758 7.08754 7.1711L7.08753 9.18769ZM10.4261 7.33875L9.42169 9.95144C9.38668 10.0388 9.32613 10.1136 9.24799 10.1659C9.16985 10.2182 9.07774 10.2456 8.98376 10.2446C8.88977 10.2436 8.79828 10.2142 8.72127 10.1602C8.64426 10.1062 8.58532 10.0302 8.55219 9.94213L7.59899 7.32945C7.55706 7.21335 7.5629 7.08531 7.61522 6.97352C7.66754 6.86172 7.76206 6.77532 7.87798 6.73333C7.9939 6.69133 8.12173 6.69718 8.23335 6.74959C8.34496 6.80199 8.43122 6.89666 8.47315 7.01276L8.99857 8.45652L9.55655 7.00347C9.60304 6.89094 9.6916 6.80108 9.80333 6.75304C9.91506 6.70501 10.0411 6.70262 10.1546 6.74637C10.268 6.79013 10.3599 6.87656 10.4107 6.98724C10.4614 7.09792 10.4669 7.22405 10.4261 7.33875ZM12.7509 8.12116C12.873 8.12298 12.9896 8.17284 13.0753 8.25999C13.161 8.34713 13.2091 8.46455 13.2091 8.58689C13.2091 8.70922 13.161 8.82664 13.0753 8.91378C12.9896 9.00093 12.873 9.05079 12.7509 9.05261H11.7884V9.31807H13.0392C13.1613 9.31993 13.2778 9.36981 13.3635 9.45695C13.4491 9.54409 13.4972 9.66149 13.4972 9.78379C13.4972 9.9061 13.4491 10.0235 13.3635 10.1106C13.2778 10.1978 13.1613 10.2477 13.0392 10.2495H11.3234C11.2623 10.2497 11.2018 10.2378 11.1453 10.2145C11.0887 10.1912 11.0374 10.1569 10.9942 10.1136C10.951 10.0703 10.9167 10.0189 10.8934 9.96227C10.8701 9.90567 10.8583 9.84501 10.8585 9.7838V7.1711C10.8583 7.10988 10.8701 7.04923 10.8934 6.99263C10.9167 6.93603 10.951 6.8846 10.9942 6.84131C11.0374 6.79802 11.0887 6.76373 11.1453 6.7404C11.2018 6.71707 11.2623 6.70517 11.3234 6.70538H13.0392C13.1609 6.70788 13.2767 6.75805 13.3619 6.84512C13.447 6.93219 13.4947 7.04922 13.4947 7.17111C13.4947 7.293 13.447 7.41004 13.3619 7.4971C13.2767 7.58417 13.1608 7.63433 13.0392 7.63682H11.7884V8.12116H12.7509Z" fill="#22BE0D"/>
</svg>
