<svg width="17" height="18" viewBox="0 0 17 18" fill="none" xmlns="http://www.w3.org/2000/svg">
<path fill-rule="evenodd" clip-rule="evenodd" d="M8.05004 0C5.41028 0 3.27034 2.04172 3.27034 4.56032V4.62528C1.40962 4.96824 0 6.59894 0 8.55888V13.9998C0 16.209 1.79086 17.9998 4 17.9998H12.1C14.3092 17.9998 16.1 16.209 16.1 13.9998V8.55889C16.1 6.59896 14.6904 4.96827 12.8297 4.62529V4.56032C12.8297 2.04172 10.6898 0 8.05004 0ZM11.3204 4.55889C11.3195 2.8363 9.85568 1.4401 8.05004 1.4401C6.24439 1.4401 4.78053 2.8363 4.77972 4.55889H11.3204ZM10.0625 11.2803C10.0625 12.3408 9.16144 13.2004 8.04996 13.2004C6.93849 13.2004 6.03746 12.3408 6.03746 11.2803C6.03746 10.2198 6.93849 9.36016 8.04996 9.36016C9.16144 9.36016 10.0625 10.2198 10.0625 11.2803Z" fill="#22BE0D"/>
</svg>
