<svg width="19" height="18" viewBox="0 0 19 18" fill="none" xmlns="http://www.w3.org/2000/svg">
<path d="M4.60809 1.56838C4.74501 1.6191 4.88119 1.67127 5.01885 1.72054C5.73322 1.9785 6.41038 2.31182 7.05777 2.70165C7.46035 2.94367 7.8473 3.20887 8.16058 3.56175C8.88611 4.37983 9.38319 5.31674 9.66224 6.35799C9.76716 6.74855 9.82372 7.15432 9.86464 7.5572C9.93087 8.21876 9.97775 8.8825 10.012 9.54623C10.0723 10.7012 10.0879 11.857 10.0239 13.012C10.0001 13.4475 9.97254 13.883 9.94724 14.3185C9.94426 14.375 9.94724 14.4322 9.94724 14.4982C10.1526 14.4793 10.3491 14.438 10.5284 14.3554C11.5479 13.8844 12.2362 13.1504 12.4111 12.0331C12.4855 11.5606 12.5279 11.0838 12.5792 10.6085C12.615 10.2759 12.8255 10.0281 13.1425 9.96215C13.5682 9.87303 13.9834 10.2078 13.9737 10.6382C13.97 10.8063 13.9544 10.9751 13.9321 11.1418C13.8658 11.6302 13.816 12.1229 13.7185 12.6055C13.5898 13.2431 13.269 13.7989 12.8508 14.3011C12.324 14.9344 11.6759 15.4126 10.8789 15.6713C10.5448 15.78 10.1891 15.8292 9.84306 15.9003C9.78204 15.9126 9.75525 15.935 9.74037 15.9937C9.62354 16.4437 9.45239 16.8698 9.14507 17.2328C8.82658 17.6081 8.43293 17.8704 7.93734 17.9712C7.64043 18.0313 7.34799 17.9864 7.05405 17.9364C5.78754 17.7204 4.6066 17.2755 3.49115 16.6625C3.09155 16.443 2.6979 16.2046 2.33551 15.9321C1.83024 15.5524 1.47306 15.0409 1.15531 14.5076C0.73339 13.7996 0.432761 13.0461 0.294352 12.2367C0.237798 11.9077 0.205056 11.5751 0.174547 11.2425C0.126922 10.7244 0.0867389 10.2049 0.0517646 9.68535C0.0286965 9.34624 0.0100932 9.0064 0.00488427 8.66657C-0.00776599 7.85356 0.00190774 7.04129 0.0606942 6.22973C0.123201 5.37181 0.197615 4.5146 0.353138 3.66682C0.471455 3.02048 0.763156 2.44877 1.16871 1.9285C1.74243 1.19303 2.46871 0.659004 3.38399 0.403945C3.81187 0.284385 4.25835 0.220621 4.70036 0.156856C5.40357 0.0561363 6.11273 0.00686345 6.82412 0.00106665C7.50128 -0.00473016 8.17844 0.0112111 8.85039 0.0959893C9.40402 0.165551 9.95915 0.237286 10.5061 0.345252C11.2822 0.498143 11.9281 0.901021 12.4877 1.43505C13.1128 2.0314 13.5645 2.73354 13.7326 3.57697C13.8346 4.08636 13.8844 4.6059 13.9507 5.12182C13.9693 5.26674 13.9812 5.41601 13.97 5.56165C13.9455 5.89352 13.6352 6.16887 13.2936 6.17974C12.9729 6.18988 12.6514 5.94279 12.6008 5.62397C12.5554 5.3363 12.5398 5.04356 12.5033 4.75445C12.4468 4.31027 12.4282 3.85667 12.2399 3.44075C11.8567 2.59659 11.2338 1.98575 10.3201 1.70533C9.97849 1.60026 9.61387 1.55823 9.25669 1.51258C8.34215 1.39592 7.4224 1.35752 6.50042 1.38216C5.86716 1.39882 5.23688 1.44809 4.60809 1.5691V1.56838Z" fill="#22BE0D"/>
<path d="M16.5775 7.35399C16.5314 7.3069 16.4867 7.25835 16.4399 7.2127C16.0738 6.85402 15.7039 6.49897 15.3423 6.13594C15.2537 6.04754 15.1763 5.9403 15.122 5.82943C14.9702 5.52148 15.1481 5.18526 15.3884 5.036C15.6764 4.85702 16.0209 4.87731 16.2576 5.10338C16.6229 5.45409 16.9838 5.80987 17.3462 6.16348C17.8113 6.6178 18.2764 7.0714 18.7385 7.5279C18.8092 7.59746 18.8769 7.67717 18.9215 7.76412C19.0547 8.02497 19.0153 8.27424 18.827 8.49596C18.7229 8.61842 18.606 8.73146 18.49 8.8445C17.78 9.53649 17.0687 10.2278 16.358 10.9198C16.2248 11.0495 16.0812 11.161 15.8877 11.1886C15.596 11.2306 15.3237 11.1067 15.1756 10.8676C15.0253 10.6263 15.0357 10.3379 15.218 10.1068C15.308 9.99299 15.4174 9.89299 15.5216 9.79083C15.8594 9.45968 16.1988 9.13072 16.5373 8.80102C16.547 8.7916 16.5545 8.77928 16.5731 8.7561C16.5269 8.7532 16.4949 8.7503 16.4622 8.7503C14.901 8.74958 13.3398 8.74813 11.7786 8.74885C11.4958 8.74885 11.2696 8.64958 11.1282 8.40756C10.8566 7.94237 11.2168 7.36776 11.763 7.37211C13.2066 7.38225 14.6502 7.37646 16.0938 7.37718C16.2509 7.37718 16.4086 7.37718 16.5656 7.37718C16.5701 7.36921 16.5738 7.36196 16.5783 7.35399H16.5775Z" fill="#22BE0D"/>
</svg>
