<svg width="24" height="20" viewBox="0 0 24 20" fill="none" xmlns="http://www.w3.org/2000/svg">
<path d="M20.7083 19H3.29167C2.0285 19 1 17.878 1 16.5V3.5C1 2.122 2.0285 1 3.29167 1H20.7083C21.9715 1 23 2.122 23 3.5V16.5C23 17.878 21.9715 19 20.7083 19ZM3.29167 2C2.53358 2 1.91667 2.673 1.91667 3.5V16.5C1.91667 17.327 2.53358 18 3.29167 18H20.7083C21.4664 18 22.0833 17.327 22.0833 16.5V3.5C22.0833 2.673 21.4664 2 20.7083 2H3.29167Z" fill="#22BE0D" stroke="#22BE0D" stroke-width="0.4"/>
<path d="M7.86589 10C6.60272 10 5.57422 8.878 5.57422 7.5C5.57422 6.122 6.60272 5 7.86589 5C9.12905 5 10.1576 6.122 10.1576 7.5C10.1576 8.878 9.12905 10 7.86589 10ZM7.86589 6C7.1078 6 6.49089 6.673 6.49089 7.5C6.49089 8.327 7.1078 9 7.86589 9C8.62397 9 9.24089 8.327 9.24089 7.5C9.24089 6.673 8.62397 6 7.86589 6Z" fill="#22BE0D" stroke="#22BE0D" stroke-width="0.4"/>
<path d="M11.5378 15C11.2848 15 11.0794 14.776 11.0794 14.5V13.5C11.0794 12.673 10.4625 12 9.70443 12H6.03776C5.27968 12 4.66276 12.673 4.66276 13.5V14.5C4.66276 14.776 4.45743 15 4.20443 15C3.95143 15 3.74609 14.776 3.74609 14.5V13.5C3.74609 12.122 4.77459 11 6.03776 11H9.70443C10.9676 11 11.9961 12.122 11.9961 13.5V14.5C11.9961 14.776 11.7908 15 11.5378 15Z" fill="#22BE0D" stroke="#22BE0D" stroke-width="0.4"/>
<path d="M19.7904 7H14.2904C14.0374 7 13.832 6.776 13.832 6.5C13.832 6.224 14.0374 6 14.2904 6H19.7904C20.0434 6 20.2487 6.224 20.2487 6.5C20.2487 6.776 20.0434 7 19.7904 7Z" fill="#22BE0D" stroke="#22BE0D" stroke-width="0.4"/>
<path d="M19.7904 11H14.2904C14.0374 11 13.832 10.776 13.832 10.5C13.832 10.224 14.0374 10 14.2904 10H19.7904C20.0434 10 20.2487 10.224 20.2487 10.5C20.2487 10.776 20.0434 11 19.7904 11Z" fill="#22BE0D" stroke="#22BE0D" stroke-width="0.4"/>
<path d="M19.7904 15H14.2904C14.0374 15 13.832 14.776 13.832 14.5C13.832 14.224 14.0374 14 14.2904 14H19.7904C20.0434 14 20.2487 14.224 20.2487 14.5C20.2487 14.776 20.0434 15 19.7904 15Z" fill="#22BE0D" stroke="#22BE0D" stroke-width="0.4"/>
</svg>
