<svg width="18" height="18" viewBox="0 0 18 18" fill="none" xmlns="http://www.w3.org/2000/svg">
<path d="M0.698217 9.49265C0.364125 9.36587 0 9.60862 0 9.96596V14.5299C0 16.4462 1.61177 17.9997 3.6 17.9997H14.4C16.3882 17.9997 18 16.4462 18 14.5299V9.966C18 9.60866 17.6359 9.36591 17.3018 9.49269C16.1713 9.92168 14.735 10.3611 13.0533 10.6556C12.4193 10.7666 11.9596 11.2917 11.6637 11.8434C11.2149 12.6804 10.3086 13.2525 9.26367 13.2525H8.73625C7.69131 13.2525 6.78502 12.6804 6.33618 11.8434C6.04033 11.2917 5.58061 10.7666 4.94667 10.6556C3.26497 10.3611 1.82866 9.92164 0.698217 9.49265Z" fill="#22BE0D"/>
<path fill-rule="evenodd" clip-rule="evenodd" d="M14.4 4.12207H3.6C1.61177 4.12207 0 5.67556 0 7.59189C0 7.77973 0.0943035 7.95339 0.257954 8.04561C1.01298 8.4711 3.37954 9.66753 6.74838 10.0703V10.2012C6.74838 11.3058 7.64381 12.2012 8.74838 12.2012H9.25146C10.356 12.2012 11.2515 11.3058 11.2515 10.2012V10.0703C14.6204 9.66757 16.987 8.4711 17.742 8.04561C17.9057 7.95339 18 7.77973 18 7.59189C18 5.67556 16.3882 4.12207 14.4 4.12207ZM8.18752 9.4082C8.07707 9.4082 7.98752 9.49775 7.98752 9.6082V10.3334C7.98752 10.7752 8.34569 11.1334 8.78752 11.1334H9.21221C9.65404 11.1334 10.0122 10.7752 10.0122 10.3334V9.6082C10.0122 9.49775 9.92267 9.4082 9.81221 9.4082H8.18752Z" fill="#22BE0D"/>
<path fill-rule="evenodd" clip-rule="evenodd" d="M8.09985 1.30118C6.98148 1.30118 6.07485 2.17502 6.07485 3.25295V4.12041C6.07485 4.47972 5.77265 4.771 5.39985 4.771C5.02706 4.771 4.72485 4.47972 4.72485 4.12041V3.25295C4.72485 1.4564 6.23589 0 8.09985 0H9.89985C11.7638 0 13.2749 1.4564 13.2749 3.25295V4.12041C13.2749 4.47972 12.9726 4.771 12.5999 4.771C12.2271 4.771 11.9249 4.47972 11.9249 4.12041V3.25295C11.9249 2.17502 11.0182 1.30118 9.89985 1.30118H8.09985Z" fill="#22BE0D"/>
</svg>
