<svg width="15" height="18" viewBox="0 0 15 18" fill="none" xmlns="http://www.w3.org/2000/svg">
<path fill-rule="evenodd" clip-rule="evenodd" d="M15 1.46539V17.3754C15 17.6082 14.868 17.8217 14.6571 17.9305C14.4463 18.0394 14.1917 18.0252 13.9946 17.8937L11.856 16.4677L9.834 17.8853C9.59143 18.0562 9.26057 18.0402 9.036 17.8476L7.5 16.5355L5.964 17.8476C5.73943 18.0402 5.40857 18.0562 5.166 17.8853L3.144 16.4677L1.00543 17.8937C0.808286 18.0252 0.553714 18.0394 0.342857 17.9305C0.132 17.8217 0 17.6082 0 17.3754V1.46539C0 0.656496 0.671143 0 1.5 0H13.5C14.3289 0 15 0.656496 15 1.46539ZM4.07143 7.95499H10.9286C11.2834 7.95499 11.5714 7.67363 11.5714 7.32696C11.5714 6.98029 11.2834 6.69894 10.9286 6.69894H4.07143C3.71657 6.69894 3.42857 6.98029 3.42857 7.32696C3.42857 7.67363 3.71657 7.95499 4.07143 7.95499ZM4.07143 4.60552H10.9286C11.2834 4.60552 11.5714 4.32416 11.5714 3.97749C11.5714 3.63082 11.2834 3.34947 10.9286 3.34947H4.07143C3.71657 3.34947 3.42857 3.63082 3.42857 3.97749C3.42857 4.32416 3.71657 4.60552 4.07143 4.60552ZM4.07143 11.3045H7.5C7.85486 11.3045 8.14286 11.0231 8.14286 10.6764C8.14286 10.3298 7.85486 10.0484 7.5 10.0484H4.07143C3.71657 10.0484 3.42857 10.3298 3.42857 10.6764C3.42857 11.0231 3.71657 11.3045 4.07143 11.3045Z" fill="#22BE0D"/>
</svg>
