<svg width="16" height="16" viewBox="0 0 16 16" fill="none" xmlns="http://www.w3.org/2000/svg">
    <path d="M14.1362 2.1362C13.1308 2.02921 12.1412 1.80555 11.1875 1.46972C10.3123 1.16049 9.47277 0.758291 8.68335 0.270013C8.47734 0.144976 8.24098 0.0788574 8 0.0788574C7.75902 0.0788574 7.52266 0.144976 7.31665 0.270013L7.3159 0.270763C6.52663 0.758644 5.68738 1.16059 4.8125 1.46972C3.85901 1.80548 2.86969 2.02915 1.86451 2.13622C1.54161 2.16929 1.24248 2.321 1.02504 2.56199C0.807597 2.80297 0.68732 3.11607 0.6875 3.44065V7.33713C0.688028 8.77477 1.07276 10.1862 1.80186 11.4252C2.53097 12.6642 3.57796 13.6859 4.83448 14.3845L7.36206 15.7892C7.55672 15.8987 7.77629 15.9562 7.99963 15.9562C8.22297 15.9562 8.44255 15.8987 8.63721 15.7892L11.1655 14.3845C12.422 13.6859 13.469 12.6642 14.1981 11.4252C14.9272 10.1862 15.312 8.77477 15.3125 7.33713V3.44065C15.3127 3.11617 15.1925 2.80316 14.9753 2.56219C14.758 2.32122 14.459 2.16943 14.1362 2.1362ZM10.9846 6.6377L8.17212 9.6377C8.03857 9.78045 7.85451 9.86534 7.65923 9.87423C7.46395 9.88313 7.27293 9.81533 7.12696 9.68531L5.43946 8.18531C5.29085 8.05322 5.20081 7.86751 5.18914 7.66903C5.17746 7.47055 5.24511 7.27557 5.3772 7.12696C5.50929 6.97836 5.695 6.88832 5.89348 6.87664C6.09196 6.86497 6.28694 6.93262 6.43554 7.06471L7.57739 8.07911L9.89039 5.61232C9.96058 5.53754 10.0453 5.47791 10.1394 5.4371C10.2335 5.39628 10.3349 5.37514 10.4375 5.37497C10.5837 5.37505 10.7267 5.41786 10.8489 5.49813C10.9711 5.57841 11.0672 5.69265 11.1253 5.82682C11.1835 5.96098 11.2011 6.1092 11.1761 6.25326C11.1511 6.39732 11.0846 6.53097 10.9846 6.6377Z" fill="#22BE0D"/>
</svg>
