<svg width="17" height="18" viewBox="0 0 17 18" fill="none" xmlns="http://www.w3.org/2000/svg">
<path d="M7.07143 12.5421V10.9286H3.85714C3.68665 10.9286 3.52313 10.8608 3.40257 10.7403C3.28202 10.6197 3.21429 10.4562 3.21429 10.2857C3.21429 10.1152 3.28202 9.9517 3.40257 9.83115C3.52313 9.71059 3.68665 9.64286 3.85714 9.64286H7.18714C7.28313 9.37324 7.43793 9.12838 7.64029 8.92601C7.84266 8.72364 8.08753 8.56885 8.35714 8.47286L11.8929 7.18714C12.3185 7.0324 12.7851 7.0324 13.2107 7.18714L14.1621 7.53429V1.92857C14.1621 1.41708 13.959 0.926543 13.5973 0.564866C13.2356 0.203188 12.7451 0 12.2336 0H1.92857C1.41708 0 0.926543 0.203188 0.564866 0.564866C0.203188 0.926543 0 1.41708 0 1.92857V16.0714C0 16.5829 0.203188 17.0735 0.564866 17.4351C0.926543 17.7968 1.41708 18 1.92857 18H9.72C8.89604 17.3484 8.22988 16.5192 7.77127 15.5741C7.31265 14.629 7.07342 13.5926 7.07143 12.5421ZM3.85714 3.21429H10.2857C10.4562 3.21429 10.6197 3.28202 10.7403 3.40257C10.8608 3.52313 10.9286 3.68665 10.9286 3.85714C10.9286 4.02764 10.8608 4.19115 10.7403 4.31171C10.6197 4.43227 10.4562 4.5 10.2857 4.5H3.85714C3.68665 4.5 3.52313 4.43227 3.40257 4.31171C3.28202 4.19115 3.21429 4.02764 3.21429 3.85714C3.21429 3.68665 3.28202 3.52313 3.40257 3.40257C3.52313 3.28202 3.68665 3.21429 3.85714 3.21429ZM3.85714 6.42857H10.2857C10.4562 6.42857 10.6197 6.4963 10.7403 6.61686C10.8608 6.73742 10.9286 6.90093 10.9286 7.07143C10.9286 7.24192 10.8608 7.40544 10.7403 7.526C10.6197 7.64656 10.4562 7.71429 10.2857 7.71429H3.85714C3.68665 7.71429 3.52313 7.64656 3.40257 7.526C3.28202 7.40544 3.21429 7.24192 3.21429 7.07143C3.21429 6.90093 3.28202 6.73742 3.40257 6.61686C3.52313 6.4963 3.68665 6.42857 3.85714 6.42857ZM5.78571 14.7857H3.85714C3.68665 14.7857 3.52313 14.718 3.40257 14.5974C3.28202 14.4769 3.21429 14.3134 3.21429 14.1429C3.21429 13.9724 3.28202 13.8088 3.40257 13.6883C3.52313 13.5677 3.68665 13.5 3.85714 13.5H5.78571C5.95621 13.5 6.11972 13.5677 6.24028 13.6883C6.36084 13.8088 6.42857 13.9724 6.42857 14.1429C6.42857 14.3134 6.36084 14.4769 6.24028 14.5974C6.11972 14.718 5.95621 14.7857 5.78571 14.7857ZM16.29 9.68143L12.7543 8.39571C12.613 8.34465 12.4584 8.34465 12.3171 8.39571L8.78143 9.68143C8.65718 9.72635 8.5498 9.80846 8.47388 9.91658C8.39796 10.0247 8.3572 10.1536 8.35714 10.2857V12.5421C8.36006 13.7075 8.72034 14.8438 9.38937 15.798C10.0584 16.7521 11.004 17.478 12.0986 17.8779C12.2375 17.9339 12.386 17.9623 12.5357 17.9614C12.6848 17.9613 12.8327 17.9352 12.9729 17.8843C14.0674 17.4825 15.0127 16.7552 15.6816 15.8001C16.3505 14.8451 16.7109 13.7081 16.7143 12.5421V10.2857C16.7142 10.1536 16.6735 10.0247 16.5976 9.91658C16.5216 9.80846 16.4142 9.72635 16.29 9.68143ZM14.5993 12.6707L12.6707 14.5993C12.611 14.6595 12.5399 14.7074 12.4615 14.74C12.3832 14.7726 12.2992 14.7894 12.2143 14.7894C12.1294 14.7894 12.0454 14.7726 11.9671 14.74C11.8887 14.7074 11.8176 14.6595 11.7579 14.5993L10.4721 13.3136C10.3511 13.1925 10.2831 13.0283 10.2831 12.8571C10.2831 12.6859 10.3511 12.5218 10.4721 12.4007C10.5932 12.2797 10.7574 12.2117 10.9286 12.2117C11.0998 12.2117 11.2639 12.2797 11.385 12.4007L12.2143 13.2364L13.6864 11.7579C13.8075 11.6368 13.9717 11.5688 14.1429 11.5688C14.3141 11.5688 14.4782 11.6368 14.5993 11.7579C14.7203 11.8789 14.7883 12.0431 14.7883 12.2143C14.7883 12.3855 14.7203 12.5497 14.5993 12.6707Z" fill="#22BE0D"/>
</svg>
