<svg width="18" height="18" viewBox="0 0 18 18" fill="none" xmlns="http://www.w3.org/2000/svg">
<path fill-rule="evenodd" clip-rule="evenodd" d="M13.6401 0H3.41002C1.52672 0 0 1.61177 0 3.6V14.4C0 16.0778 1.08721 17.4875 2.55845 17.8868C2.83065 17.9607 3.11599 18 3.41002 18H13.6401C13.9341 18 14.2194 17.9607 14.4916 17.8868C15.9629 17.4875 17.0501 16.0778 17.0501 14.4V3.6C17.0501 1.61178 15.5234 0 13.6401 0ZM11.0825 6.3C11.0825 4.80883 9.93751 3.6 8.52504 3.6C7.11256 3.6 5.96753 4.80883 5.96753 6.3C5.96753 7.79117 7.11256 9 8.52504 9C9.93751 9 11.0825 7.79117 11.0825 6.3ZM4.39259 13.514C4.86 11.9542 6.53293 10.8 8.52504 10.8C10.5171 10.8 12.1901 11.9542 12.6575 13.514C12.7995 13.9879 12.4059 14.4 11.9351 14.4H5.11502C4.6442 14.4 4.25058 13.9879 4.39259 13.514Z" fill="#22BE0D"/>
</svg>
