<svg width="18" height="18" viewBox="0 0 18 18" fill="none" xmlns="http://www.w3.org/2000/svg">
<path d="M12.5951 0.000195044C12.1961 0.000183708 12.1933 0.587395 12.5974 0.600589C14.928 0.600589 16.9172 2.27272 17.3219 4.56796C17.7266 6.86321 16.4292 9.11462 14.2392 9.91175C12.0905 10.6939 9.69548 9.84805 8.50547 7.90967L9.03264 8.05083C9.4235 8.1618 9.58188 7.57009 9.18786 7.47094L7.95898 7.14116C7.76774 7.09741 7.62903 7.21733 7.59173 7.35379L7.26196 8.58211C7.151 8.97298 7.7427 9.13138 7.84184 8.73732L7.98417 8.20488C9.31592 10.3994 12.0206 11.3552 14.443 10.4735C16.9028 9.57817 18.3669 7.04285 17.9123 4.46486C17.449 1.7897 15.0839 -0.0216275 12.5951 0.000195044ZM12.6567 2.32865C10.8348 2.32865 9.35784 3.80563 9.35783 5.62759C9.35784 7.44954 10.8348 8.92652 12.6567 8.92652C14.4786 8.92652 15.9555 7.44954 15.9555 5.62759C15.9555 3.80563 14.4786 2.32865 12.6567 2.32865ZM12.9577 3.39178V3.65184C13.4634 3.77047 13.797 4.15826 13.9453 4.62712C14.0648 5.00932 13.4914 5.18855 13.3718 4.80636C13.2519 4.42689 13.0043 4.23042 12.6455 4.21651C12.2369 4.21991 11.9216 4.52946 11.9216 4.91941C11.9216 5.07214 11.9583 5.14684 12.078 5.20526C12.1976 5.26364 12.4291 5.29605 12.6877 5.32299C12.9463 5.34996 13.2342 5.37184 13.5025 5.50282C13.7707 5.63381 13.9915 5.8959 13.9915 6.32755C13.9915 6.9486 13.5441 7.47522 12.9577 7.60332V7.85577C12.9668 8.26458 12.3489 8.26458 12.3579 7.85577V7.59746C11.7723 7.44962 11.5131 7.03087 11.3727 6.63273C11.2285 6.24034 11.8349 6.04752 11.9438 6.45115C12.0605 6.81074 12.3039 7.01517 12.6678 7.02928C13.0752 7.02588 13.3941 6.71517 13.3941 6.3299C13.3941 6.16996 13.3539 6.1013 13.2342 6.04288C13.1145 5.9845 12.8842 5.95095 12.6256 5.92397C12.367 5.89699 12.0829 5.87682 11.8144 5.74649C11.5445 5.61549 11.3218 5.35555 11.3218 4.91941C11.3218 4.29756 11.7692 3.77571 12.3579 3.64424V3.39178C12.3702 3.19232 12.5129 3.09246 12.6561 3.09246C12.7993 3.09246 12.9431 3.19232 12.9577 3.39178ZM6.57665 10.7973C6.11146 10.7973 5.28322 11.111 4.62558 11.4258C4.4969 11.4874 4.42139 11.5294 4.30987 11.5851C4.42628 11.7984 4.49847 12.039 4.49847 12.298V16.3408C4.8804 16.2743 5.26782 16.2132 5.69922 16.1967C6.06996 16.1967 6.76296 16.7222 7.21334 17.0402C7.85514 17.4933 8.54646 17.9944 9.2962 17.9944C9.52188 17.9944 9.74858 17.9202 10.0471 17.8087C11.6878 17.1954 15.1484 15.2375 17.1643 14.0582C17.6744 13.7761 17.842 13.1228 17.5539 12.6237C17.2774 12.1448 16.7161 12.0281 16.1704 12.2142L12.4047 13.4809C12.4317 13.7259 12.3878 13.9799 12.2559 14.2084C11.9262 14.7795 11.1886 15.014 10.6176 14.6843L8.79774 13.6347C8.42153 13.4426 8.74582 12.8849 9.09881 13.1169L10.9163 14.166C11.2086 14.3347 11.567 14.2392 11.7358 13.9469C11.9045 13.6546 11.8084 13.2968 11.5161 13.128C10.1778 12.3553 7.80191 10.7973 6.57665 10.7973ZM0.901442 11.3971C0.396608 11.3971 0 11.8053 0 12.2986V16.4955C0 16.9868 0.396877 17.3964 0.895584 17.3964H3.00017C3.54777 17.3964 3.89868 16.9311 3.89868 16.4949V12.298C3.89868 11.794 3.49101 11.3971 3.00076 11.3971H0.901442ZM1.50065 15.5964C1.66627 15.5964 1.80054 15.7306 1.80054 15.8963C1.80054 16.0619 1.66627 16.1962 1.50065 16.1962C1.33502 16.1962 1.20075 16.0619 1.20075 15.8963C1.20075 15.7306 1.33502 15.5964 1.50065 15.5964Z" fill="#22BE0D"/>
</svg>
