<svg width="14" height="18" viewBox="0 0 14 18" fill="none" xmlns="http://www.w3.org/2000/svg">
<path fill-rule="evenodd" clip-rule="evenodd" d="M7.65918 0.000467673C7.63557 -0.000442585 7.61192 -2.38521e-05 7.58836 0.00172189C7.46703 0.0129311 7.35144 0.0590761 7.25535 0.134669L4.71057 2.0599C4.63134 2.11968 4.56702 2.19728 4.52271 2.28655C4.47841 2.37582 4.45534 2.47428 4.45534 2.57413C4.45534 2.67397 4.47841 2.77244 4.52271 2.86171C4.56702 2.95097 4.63134 3.02858 4.71057 3.08836L7.25535 5.01735C7.32198 5.07115 7.39865 5.11087 7.4808 5.13415C7.56295 5.15742 7.6489 5.16377 7.73353 5.15283C7.81817 5.14188 7.89975 5.11386 7.97344 5.07042C8.04712 5.02699 8.11139 4.96904 8.16243 4.90002C8.21346 4.831 8.25022 4.75232 8.2705 4.66866C8.29079 4.585 8.2942 4.49808 8.28051 4.41307C8.26683 4.32806 8.23635 4.2467 8.19087 4.17382C8.14539 4.10095 8.08585 4.03806 8.0158 3.98889L6.99689 3.21629C10.1668 3.21628 12.7264 5.79487 12.7264 8.99448C12.7264 9.16496 12.7935 9.32846 12.9129 9.449C13.0323 9.56955 13.1943 9.63727 13.3632 9.63727C13.5321 9.63727 13.6941 9.56955 13.8135 9.449C13.9329 9.32846 14 9.16496 14 8.99448C14 5.10267 10.8569 1.9347 7.00186 1.93197L8.0158 1.16313C8.12387 1.0845 8.20475 0.973607 8.24704 0.846092C8.28932 0.718577 8.29088 0.580879 8.25148 0.452426C8.21208 0.323972 8.13371 0.211248 8.02744 0.130158C7.92117 0.0490672 7.79236 0.00370371 7.65918 0.000467673ZM0.617556 8.35232C0.452091 8.35726 0.295043 8.42708 0.179744 8.54697C0.0644443 8.66687 -3.14633e-05 8.82739 1.15183e-08 8.99448C1.15183e-08 12.888 3.13957 16.0633 6.99689 16.0633L5.98296 16.8309C5.9129 16.88 5.85336 16.9429 5.80789 17.0158C5.76241 17.0887 5.73192 17.17 5.71824 17.255C5.70456 17.34 5.70796 17.427 5.72825 17.5106C5.74854 17.5943 5.78529 17.673 5.83633 17.742C5.88736 17.811 5.95164 17.869 6.02532 17.9124C6.099 17.9558 6.18059 17.9838 6.26522 17.9948C6.34986 18.0057 6.43581 17.9994 6.51796 17.9761C6.60011 17.9528 6.67678 17.9131 6.74341 17.8593L9.28943 15.9303C9.36795 15.8705 9.43164 15.7931 9.4755 15.7042C9.51935 15.6152 9.54218 15.5173 9.54218 15.418C9.54218 15.3187 9.51935 15.2207 9.4755 15.1318C9.43164 15.0429 9.36795 14.9655 9.28943 14.9056L6.74341 12.9766C6.62554 12.885 6.47956 12.8379 6.33088 12.8437C6.19875 12.849 6.07154 12.8957 5.96696 12.9774C5.86237 13.0591 5.7856 13.1716 5.74733 13.2994C5.70906 13.4271 5.71118 13.5638 5.75341 13.6902C5.79565 13.8167 5.87588 13.9268 5.98296 14.0051L7.00559 14.7777H6.99689C3.82701 14.7777 1.27239 12.1941 1.27239 8.99448C1.2724 8.90855 1.25534 8.82349 1.2222 8.74434C1.18906 8.66519 1.14052 8.59355 1.07946 8.53367C1.0184 8.47379 0.946061 8.42689 0.86672 8.39574C0.787379 8.36459 0.702652 8.34983 0.617556 8.35232Z" fill="black"/>
</svg>
