<svg width="18" height="18" viewBox="0 0 18 18" fill="none" xmlns="http://www.w3.org/2000/svg">
    <path d="M1.06223 8.20799C1.42223 4.78799 3.94223 2.01599 7.21823 1.27799L6.66023 0.809994C6.48023 0.647994 6.46223 0.359994 6.62423 0.179994C6.76823 0.0179943 7.02023 -0.0180057 7.21823 0.107994L8.53223 1.15199C8.62223 1.22399 8.67623 1.33199 8.69423 1.45799C8.71223 1.58399 8.67623 1.70999 8.60423 1.79999L7.56023 3.11399C7.47023 3.22199 7.34423 3.29399 7.20023 3.27599C6.94823 3.27599 6.75023 3.07799 6.75023 2.82599C6.75023 2.71799 6.78623 2.60999 6.84023 2.53799L7.09223 2.23199C4.33823 3.00599 2.28623 5.38199 1.96223 8.29799C1.94423 8.53199 1.74623 8.69399 1.51223 8.69399H1.47623C1.22423 8.67599 1.04423 8.45999 1.06223 8.20799ZM8.24423 16.038C5.31023 15.732 2.93423 13.644 2.17823 10.872L2.53823 11.16C2.73623 11.322 3.02423 11.286 3.16823 11.088C3.33023 10.89 3.29423 10.602 3.09623 10.458L1.78223 9.39599C1.69223 9.32399 1.56623 9.28799 1.45823 9.30599C1.33223 9.32399 1.22423 9.37799 1.15223 9.46799L0.108227 10.782C0.0362269 10.854 0.0182268 10.962 0.0182268 11.07C0.000226846 11.322 0.198227 11.52 0.450227 11.52C0.594227 11.52 0.720227 11.466 0.810227 11.358L1.24223 10.818C1.99823 14.094 4.75223 16.578 8.17223 16.938H8.20823C8.46023 16.956 8.67623 16.758 8.67623 16.506C8.69423 16.272 8.49623 16.056 8.24423 16.038ZM16.4882 9.35999C16.2362 9.34199 16.0202 9.52199 15.9842 9.75599C15.6782 12.672 13.6082 15.048 10.8542 15.822L11.1602 15.444C11.3222 15.246 11.2862 14.958 11.0882 14.814C10.8902 14.652 10.6022 14.688 10.4582 14.886L9.46823 16.128C9.34223 16.218 9.27023 16.362 9.28823 16.506C9.28823 16.686 9.41423 16.83 9.55823 16.902L10.7822 17.892C10.8542 17.946 10.9622 17.982 11.0702 17.982C11.2142 17.982 11.3402 17.928 11.4122 17.82C11.5742 17.622 11.5382 17.334 11.3402 17.19L10.8182 16.776C14.0582 16.002 16.5242 13.248 16.8842 9.86399C16.9202 9.59399 16.7402 9.37799 16.4882 9.35999ZM17.8382 6.74999C17.6402 6.58799 17.3522 6.62399 17.2082 6.82199L16.7582 7.37999C16.0382 4.04999 13.2662 1.49399 9.81023 1.11599C9.55823 1.07999 9.32423 1.25999 9.30623 1.51199C9.28823 1.76399 9.46823 1.97999 9.70223 2.01599C12.6722 2.33999 15.0842 4.46399 15.8042 7.28999L15.4622 7.00199C15.2642 6.83999 14.9762 6.87599 14.8322 7.07399C14.6882 7.27199 14.7062 7.55999 14.9042 7.70399L16.2182 8.74799C16.2902 8.80199 16.3982 8.83799 16.5062 8.83799C16.6502 8.83799 16.7762 8.78399 16.8662 8.67599L17.9102 7.36199C18.0542 7.18199 18.0362 6.89399 17.8382 6.74999ZM9.00023 13.698C6.39023 13.698 4.26623 11.574 4.26623 8.96399C4.26623 6.35399 6.39023 4.22999 9.00023 4.22999C11.6102 4.22999 13.7342 6.35399 13.7342 8.96399C13.7342 11.592 11.6102 13.698 9.00023 13.698ZM10.4942 10.008C10.4942 9.17999 9.82823 8.51399 9.00023 8.51399C8.67623 8.51399 8.40623 8.24399 8.40623 7.91999C8.40623 7.59599 8.67623 7.32599 9.00023 7.32599C9.32423 7.32599 9.59423 7.59599 9.59423 7.91999C9.59423 8.17199 9.79223 8.36999 10.0442 8.36999C10.2962 8.36999 10.4942 8.17199 10.4942 7.91999C10.4942 7.25399 10.0802 6.67799 9.45023 6.47999V6.40799C9.45023 6.15599 9.25223 5.95799 9.00023 5.95799C8.74823 5.95799 8.55023 6.15599 8.55023 6.40799V6.47999C7.92023 6.67799 7.48823 7.27199 7.48823 7.93799C7.50623 8.76599 8.17223 9.43199 9.00023 9.41399C9.30623 9.43199 9.54023 9.66599 9.55823 9.97199C9.57623 10.296 9.32423 10.584 9.00023 10.602C8.67623 10.602 8.40623 10.332 8.40623 10.008C8.40623 9.75599 8.20823 9.55799 7.95623 9.55799C7.70423 9.55799 7.50623 9.75599 7.50623 10.008C7.50623 10.656 7.93823 11.232 8.55023 11.43V11.52C8.55023 11.772 8.74823 11.97 9.00023 11.97C9.25223 11.97 9.45023 11.772 9.45023 11.52V11.43C10.0802 11.232 10.4942 10.656 10.4942 10.008Z" fill="#22BE0D"/>
</svg>
