<svg width="18" height="18" viewBox="0 0 18 18" fill="none" xmlns="http://www.w3.org/2000/svg">
    <path d="M1.87305 3.36375V13.4381C1.87503 14.1805 2.17079 14.8918 2.6957 15.4167C3.22061 15.9416 3.93197 16.2374 4.6743 16.2394H8.46555C8.51952 15.8499 8.63138 15.4707 8.79742 15.1144C9.25167 14.1125 10.0732 13.3232 11.0924 12.9094C10.7251 12.6552 10.4252 12.3156 10.2184 11.9197C10.0116 11.5238 9.90426 11.0835 9.90555 10.6369C9.90628 9.89864 10.1999 9.19085 10.7219 8.66883C11.2439 8.14682 11.9517 7.85323 12.6899 7.8525C12.9588 7.85148 13.2262 7.89131 13.483 7.97062C13.9047 8.09537 14.2904 8.31909 14.608 8.62313V3.36375C14.608 2.62083 14.3128 1.90836 13.7875 1.38304C13.2622 0.85772 12.5497 0.562567 11.8068 0.5625H4.6743C3.93167 0.563522 3.21976 0.858981 2.69464 1.3841C2.16953 1.90921 1.87407 2.62113 1.87305 3.36375ZM5.27055 3.3525H11.2105C11.3597 3.3525 11.5028 3.41176 11.6083 3.51725C11.7138 3.62274 11.773 3.76582 11.773 3.915C11.773 4.06418 11.7138 4.20726 11.6083 4.31275C11.5028 4.41824 11.3597 4.4775 11.2105 4.4775H5.27055C5.12136 4.4775 4.97829 4.41824 4.8728 4.31275C4.76731 4.20726 4.70805 4.06418 4.70805 3.915C4.70805 3.76582 4.76731 3.62274 4.8728 3.51725C4.97829 3.41176 5.12136 3.3525 5.27055 3.3525ZM5.27055 6.345H11.2105C11.3597 6.345 11.5028 6.40426 11.6083 6.50975C11.7138 6.61524 11.773 6.75832 11.773 6.9075C11.773 7.05668 11.7138 7.19976 11.6083 7.30525C11.5028 7.41074 11.3597 7.47 11.2105 7.47H5.27055C5.12136 7.47 4.97829 7.41074 4.8728 7.30525C4.76731 7.19976 4.70805 7.05668 4.70805 6.9075C4.70805 6.75832 4.76731 6.61524 4.8728 6.50975C4.97829 6.40426 5.12136 6.345 5.27055 6.345ZM5.27055 9.33187H7.97055C8.11973 9.33187 8.2628 9.39114 8.36829 9.49663C8.47378 9.60212 8.53305 9.74519 8.53305 9.89437C8.53305 10.0436 8.47378 10.1866 8.36829 10.2921C8.2628 10.3976 8.11973 10.4569 7.97055 10.4569H5.27055C5.12136 10.4569 4.97829 10.3976 4.8728 10.2921C4.76731 10.1866 4.70805 10.0436 4.70805 9.89437C4.70805 9.74519 4.76731 9.60212 4.8728 9.49663C4.97829 9.39114 5.12136 9.33187 5.27055 9.33187Z" fill="#22BE0D"/>
    <path d="M12.6901 12.5775C13.7619 12.5775 14.6308 11.7087 14.6308 10.6369C14.6308 9.56514 13.7619 8.69629 12.6901 8.69629C11.6184 8.69629 10.7495 9.56514 10.7495 10.6369C10.7495 11.7087 11.6184 12.5775 12.6901 12.5775Z" fill="#22BE0D"/>
    <path d="M9.82129 17.4375H15.5644C15.7135 17.437 15.8563 17.3776 15.9617 17.2722C16.0671 17.1668 16.1265 17.024 16.1269 16.875C16.1269 15.9642 15.7651 15.0907 15.1211 14.4467C14.4771 13.8027 13.6036 13.4409 12.6929 13.4409C11.7821 13.4409 10.9086 13.8027 10.2646 14.4467C9.62059 15.0907 9.25879 15.9642 9.25879 16.875C9.25922 17.024 9.31862 17.1669 9.42402 17.2723C9.52942 17.3776 9.67224 17.437 9.82129 17.4375Z" fill="#22BE0D"/>
</svg>
