<svg width="18" height="18" viewBox="0 0 18 18" fill="none" xmlns="http://www.w3.org/2000/svg">
    <path d="M4.20649 3.64971L11.3822 1.69103L11.0022 0.922923C10.7536 0.423653 10.1472 0.217477 9.64793 0.466101L3.22412 3.64971H4.20649Z" fill="#22BE0D"/>
    <path d="M13.6097 1.74756C13.5208 1.74756 13.4319 1.75969 13.3429 1.78394L11.6572 2.24481L6.50879 3.64964H12.3525H14.8994L14.584 2.49343C14.4627 2.04267 14.0544 1.74756 13.6097 1.74756Z" fill="#22BE0D"/>
    <path d="M15.9524 4.35718H15.722H15.4086H15.0953H12.7041H3.91735H2.76519H1.79495H1.61505H1.01269C0.693318 4.35718 0.40831 4.50474 0.222347 4.73719C0.137451 4.84432 0.0727681 4.96762 0.0363841 5.10305C0.0141494 5.18795 0 5.27689 0 5.36785V5.48913V6.64129V16.6287C0 17.1866 0.452779 17.6394 1.01067 17.6394H15.9504C16.5083 17.6394 16.961 17.1866 16.961 16.6287V13.8089H10.9637C10.0157 13.8089 9.24559 13.0388 9.24559 12.0908V11.165V10.8517V10.5384V9.84308C9.24559 9.37818 9.43154 8.95574 9.73273 8.64647C9.99955 8.37155 10.3573 8.18559 10.7576 8.1391C10.8243 8.13103 10.893 8.12697 10.9617 8.12697H16.1202H16.4335H16.7468H16.961V5.36785C16.9631 4.80996 16.5103 4.35718 15.9524 4.35718Z" fill="#22BE0D"/>
    <path d="M17.6706 9.09314C17.5695 9.00016 17.4503 8.92942 17.3169 8.88293C17.2137 8.84858 17.1046 8.82837 16.9894 8.82837H16.9631H16.9429H16.6296H15.4997H10.9638C10.4059 8.82837 9.95312 9.28113 9.95312 9.83904V10.3423V10.6556V10.9689V12.0888C9.95312 12.6467 10.4059 13.0994 10.9638 13.0994H16.9631H16.9894C17.1046 13.0994 17.2138 13.0792 17.3169 13.0449C17.4503 13.0004 17.5695 12.9276 17.6706 12.8346C17.8727 12.6507 18.0001 12.3839 18.0001 12.0888V9.83904C18.0001 9.5439 17.8727 9.27707 17.6706 9.09314ZM13.0741 11.165C13.0741 11.444 12.8477 11.6703 12.5687 11.6703H12.2332C11.9542 11.6703 11.7279 11.444 11.7279 11.165V10.8295C11.7279 10.6678 11.8026 10.5242 11.9219 10.4333C12.0088 10.3666 12.116 10.3241 12.2332 10.3241H12.3181H12.5687C12.8477 10.3241 13.0741 10.5505 13.0741 10.8295V11.165Z" fill="#22BE0D"/>
</svg>
