<svg width="18" height="18" viewBox="0 0 18 18" fill="none" xmlns="http://www.w3.org/2000/svg">
    <g clip-path="url(#clip0_7930_3419)">
        <path fill-rule="evenodd" clip-rule="evenodd" d="M4.04671 6.22111L5.04353 6.46632C5.10143 6.63561 5.17012 6.80101 5.2492 6.9615L4.71732 7.84041C4.69222 7.88172 4.68175 7.93027 4.68757 7.97825C4.69339 8.02624 4.71517 8.07088 4.74941 8.10499L6.01304 9.36861C6.04719 9.40278 6.09181 9.42451 6.13977 9.43033C6.18773 9.43615 6.23625 9.42572 6.27759 9.40071L7.15649 8.86866C7.31691 8.94773 7.48227 9.01636 7.65153 9.07414L7.89657 10.0713C7.90814 10.1182 7.93511 10.1599 7.97315 10.1897C8.01119 10.2195 8.05812 10.2357 8.10645 10.2357H9.89362C9.94195 10.2357 9.98888 10.2195 10.0269 10.1897C10.065 10.1599 10.092 10.1182 10.1035 10.0713L10.3486 9.07432C10.5178 9.01648 10.6832 8.94778 10.8436 8.86866L11.7225 9.40071C11.7638 9.42572 11.8123 9.43614 11.8603 9.43033C11.9083 9.42451 11.9529 9.40278 11.9871 9.36861L13.2504 8.10489C13.2845 8.0707 13.3062 8.02608 13.312 7.97812C13.3179 7.93017 13.3075 7.88166 13.2825 7.8403L12.7508 6.96139C12.8297 6.80089 12.8982 6.63549 12.9559 6.46622L13.9531 6.221C14 6.20947 14.0418 6.18255 14.0716 6.14453C14.1014 6.10651 14.1176 6.05959 14.1177 6.01126V4.22438C14.1176 4.17603 14.1014 4.1291 14.0716 4.09105C14.0418 4.05301 14 4.02606 13.9531 4.01449L12.9559 3.76945C12.8982 3.60018 12.8297 3.43477 12.7508 3.27424L13.2825 2.39534C13.3075 2.35399 13.3179 2.30547 13.312 2.25753C13.3062 2.20958 13.2845 2.16496 13.2504 2.13079L11.9869 0.86727C11.9527 0.833103 11.9081 0.811375 11.8601 0.805556C11.8121 0.799738 11.7636 0.810165 11.7223 0.835172L10.8434 1.36702C10.6829 1.28804 10.5176 1.21941 10.3484 1.16156L10.1033 0.164566C10.0918 0.11764 10.0648 0.0759371 10.0268 0.04611C9.98876 0.0162829 9.94184 4.97304e-05 9.89351 0L8.10634 0C8.058 2.78744e-05 8.01106 0.0162515 7.97302 0.0460808C7.93497 0.0759102 7.90802 0.117625 7.89646 0.164566L7.65142 1.16156C7.48223 1.21951 7.31689 1.28813 7.15639 1.36702L6.27748 0.835172C6.23615 0.810162 6.18762 0.799732 6.13966 0.805551C6.09171 0.81137 6.04708 0.833101 6.01293 0.86727L4.74941 2.13089C4.71517 2.165 4.69338 2.20963 4.68756 2.25761C4.68174 2.30559 4.69222 2.35413 4.71732 2.39544L5.2492 3.27435C5.17018 3.43483 5.1016 3.60025 5.04388 3.76956L4.04671 4.0146C3.99977 4.02616 3.95806 4.05312 3.92823 4.09116C3.8984 4.1292 3.88218 4.17614 3.88214 4.22448V6.01147C3.88218 6.0598 3.89841 6.10672 3.92824 6.14474C3.95807 6.18276 3.99978 6.20968 4.04671 6.22121V6.22111ZM9.00002 7.38844C8.47473 7.38813 7.9658 7.2057 7.55994 6.87224C7.15407 6.53877 6.87638 6.0749 6.77418 5.55965C6.67197 5.04441 6.75158 4.50966 6.99943 4.04653C7.24728 3.58339 7.64804 3.22052 8.13344 3.01973C8.61884 2.81894 9.15883 2.79266 9.66143 2.94537C10.164 3.09808 10.5981 3.42032 10.8898 3.8572C11.1814 4.29408 11.3126 4.81857 11.2609 5.34131C11.2092 5.86404 10.9779 6.35269 10.6063 6.72398C10.3955 6.93508 10.1451 7.10245 9.86946 7.21648C9.5938 7.33051 9.29833 7.38895 9.00002 7.38844ZM7.69923 3.81716C7.95645 3.5602 8.28407 3.38526 8.64069 3.31447C8.99731 3.24367 9.36691 3.28019 9.70278 3.4194C10.0386 3.55862 10.3257 3.79429 10.5277 4.09662C10.7296 4.39895 10.8374 4.75436 10.8374 5.11794C10.8374 5.48152 10.7296 5.83694 10.5277 6.13926C10.3257 6.44159 10.0386 6.67726 9.70278 6.81648C9.36691 6.9557 8.99731 6.99221 8.64069 6.92142C8.28407 6.85062 7.95645 6.67568 7.69923 6.41872C7.52753 6.2484 7.39124 6.04577 7.29823 5.82251C7.20522 5.59926 7.15734 5.3598 7.15734 5.11794C7.15734 4.87609 7.20522 4.63663 7.29823 4.41337C7.39124 4.19011 7.52753 3.98748 7.69923 3.81716ZM15.1891 18L9.99251 17.9791L10.0019 15.5935L15.1984 15.6142L15.1891 18ZM15.444 8.08977C15.6115 8.21513 15.7226 8.4016 15.7532 8.60855C15.7839 8.8155 15.7314 9.02616 15.6074 9.19463L13.8094 11.6179C13.7753 11.6639 13.7608 11.7216 13.7692 11.7783C13.7776 11.835 13.8082 11.886 13.8542 11.9202C13.9002 11.9543 13.9579 11.9688 14.0146 11.9604C14.0713 11.952 14.1223 11.9214 14.1565 11.8754L15.9543 9.45207C16.137 9.20454 16.2198 8.89735 16.1863 8.59155C16.1529 8.28576 16.0055 8.00375 15.7737 7.80159L15.3578 4.99451C15.3262 4.77743 15.382 4.55669 15.5129 4.38069C15.6438 4.20469 15.8392 4.0878 16.0562 4.05565C16.2732 4.02351 16.4941 4.07873 16.6704 4.20921C16.8468 4.33969 16.9642 4.53477 16.9969 4.75168L17.6782 9.34931C17.7039 9.50312 17.6976 9.66059 17.6596 9.81184C17.6217 9.96309 17.5528 10.1048 17.4574 10.2282L14.7926 13.82C14.6653 13.9876 14.5966 14.1922 14.5968 14.4025L14.5891 15.1798L10.462 15.1633C10.2068 14.6505 10.2227 13.9442 10.5096 13.1594C10.9445 11.9715 11.8583 10.9555 12.4389 10.7517C12.4796 10.7374 12.5151 10.7113 12.5408 10.6766L14.3387 8.25335C14.4641 8.08581 14.6506 7.97459 14.8576 7.94393C15.0646 7.91326 15.2753 7.96563 15.4439 8.08963L15.444 8.08977ZM10.6348 16.8712C10.6941 16.9153 10.7616 16.9472 10.8333 16.9652C10.9049 16.9832 10.9795 16.9869 11.0526 16.976C11.1257 16.9652 11.196 16.9401 11.2594 16.9021C11.3227 16.8641 11.378 16.8139 11.422 16.7546C11.4884 16.6652 11.5267 16.5581 11.5322 16.4469C11.5377 16.3357 11.5101 16.2254 11.4528 16.1299C11.3956 16.0344 11.3114 15.958 11.2108 15.9104C11.1101 15.8628 10.9977 15.8461 10.8875 15.8624C10.7774 15.8788 10.6746 15.9274 10.5921 16.0021C10.5096 16.0769 10.4512 16.1744 10.4241 16.2824C10.3971 16.3904 10.4026 16.504 10.4401 16.6088C10.4776 16.7136 10.5454 16.8049 10.6348 16.8712ZM10.8652 16.3412C10.8498 16.362 10.8408 16.3869 10.8395 16.4128C10.8382 16.4387 10.8446 16.4644 10.8579 16.4866C10.8712 16.5088 10.8909 16.5266 10.9143 16.5377C10.9377 16.5488 10.9639 16.5527 10.9895 16.5489C11.0152 16.5451 11.0391 16.5337 11.0583 16.5163C11.0775 16.4989 11.091 16.4762 11.0973 16.451C11.1036 16.4259 11.1022 16.3994 11.0935 16.3751C11.0847 16.3507 11.0689 16.3294 11.048 16.314C11.0343 16.3038 11.0186 16.2964 11.0019 16.2922C10.9853 16.288 10.968 16.2872 10.951 16.2897C10.934 16.2922 10.9177 16.2981 10.903 16.3069C10.8883 16.3158 10.8754 16.3274 10.8652 16.3412ZM2.81076 18L2.80141 15.6142L7.99799 15.5935L8.00752 17.9791L2.81076 18ZM0.321731 9.34931L1.00288 4.75168C1.03643 4.53556 1.15408 4.34147 1.33017 4.21174C1.50626 4.08202 1.7265 4.02719 1.94286 4.05921C2.15922 4.09123 2.35414 4.2075 2.4851 4.38267C2.61607 4.55784 2.67246 4.77768 2.64197 4.99426L2.22607 7.80152C1.99419 8.00367 1.84686 8.28568 1.81339 8.59148C1.77991 8.89728 1.86274 9.20448 2.04541 9.452L3.84326 11.8753C3.8774 11.9213 3.92843 11.9519 3.98512 11.9603C4.0418 11.9687 4.09951 11.9543 4.14554 11.9201C4.19156 11.886 4.22214 11.8349 4.23055 11.7783C4.23896 11.7216 4.2245 11.6639 4.19036 11.6178L2.3925 9.19463C2.26936 9.02631 2.21778 8.81612 2.24904 8.60992C2.28029 8.40372 2.39183 8.21825 2.55933 8.09399C2.72682 7.96972 2.93666 7.91675 3.14307 7.94664C3.34947 7.97652 3.53567 8.08683 3.66105 8.25349L5.4589 10.677C5.48462 10.7116 5.52013 10.7377 5.56086 10.752C6.14164 10.9559 7.05524 11.9719 7.49016 13.1597C7.77718 13.9444 7.79296 14.6507 7.53773 15.1636L3.41063 15.1801L3.403 14.4028C3.40325 14.1925 3.33446 13.9878 3.20718 13.8203L0.542336 10.2285C0.446975 10.1052 0.378152 9.96338 0.340189 9.81214C0.302225 9.66089 0.295941 9.50342 0.321731 9.34963V9.34931ZM7.11241 15.8625C6.98354 15.8433 6.852 15.8694 6.74022 15.9364C6.62844 16.0033 6.54333 16.1069 6.49939 16.2296C6.45545 16.3522 6.45541 16.4863 6.49927 16.609C6.54313 16.7317 6.62817 16.8354 6.73991 16.9024C6.85165 16.9694 6.98317 16.9956 7.11205 16.9765C7.24094 16.9574 7.35921 16.8942 7.44671 16.7976C7.53421 16.7011 7.58553 16.5772 7.59192 16.4471C7.59831 16.3169 7.55938 16.1886 7.48176 16.084C7.4379 16.0245 7.38267 15.9743 7.31927 15.9362C7.25587 15.8982 7.18556 15.8732 7.11241 15.8625ZM7.1593 16.4385C7.16183 16.4215 7.16095 16.4042 7.15673 16.3875C7.1525 16.3708 7.14502 16.3552 7.1347 16.3414C7.11404 16.3136 7.08319 16.2951 7.04891 16.29C7.01464 16.2849 6.97974 16.2936 6.95188 16.3142C6.93778 16.3243 6.92584 16.3372 6.91674 16.352C6.90764 16.3667 6.90158 16.3832 6.8989 16.4003C6.89622 16.4175 6.89698 16.435 6.90113 16.4519C6.90528 16.4687 6.91274 16.4846 6.92308 16.4985C6.93342 16.5125 6.94644 16.5242 6.96136 16.5331C6.97628 16.5419 6.99282 16.5477 7.01001 16.5502C7.0272 16.5526 7.0447 16.5515 7.06149 16.5471C7.07828 16.5427 7.09402 16.535 7.1078 16.5245C7.12167 16.5142 7.13337 16.5014 7.14221 16.4866C7.15106 16.4718 7.15687 16.4554 7.1593 16.4384V16.4385Z" fill="#22BE0D"/>
    </g>
    <defs>
        <clipPath id="clip0_7930_3419">
            <rect width="18" height="18" fill="white"/>
        </clipPath>
    </defs>
</svg>
