<svg width="18" height="18" viewBox="0 0 18 18" fill="none" xmlns="http://www.w3.org/2000/svg">
    <path fill-rule="evenodd" clip-rule="evenodd" d="M6.1515 5.49633C6.1515 5.95547 5.78834 6.33973 5.3074 6.42797V6.99117C5.3074 7.10754 5.21248 7.20211 5.09646 7.20211C4.9801 7.20211 4.88553 7.10754 4.88553 6.99117V6.42797C4.40459 6.33973 4.04283 5.95547 4.04283 5.49633C4.04283 5.37996 4.13775 5.28539 4.25377 5.28539C4.37014 5.28539 4.46471 5.37996 4.46471 5.49633C4.46471 5.78813 4.74771 6.02543 5.09646 6.02543C5.44521 6.02543 5.72963 5.78813 5.72963 5.49633C5.72963 5.2875 5.54857 5.18625 5.13654 5.00484C5.09506 4.98656 5.05182 4.96758 5.01033 4.94859C4.96885 4.92996 4.92701 4.91203 4.88693 4.8941C4.49072 4.71973 4.04283 4.52215 4.04283 4.01625C4.04283 3.55711 4.40459 3.17285 4.88553 3.08461V2.52176C4.88553 2.40504 4.98045 2.31082 5.09646 2.31082C5.21283 2.31082 5.3074 2.40504 5.3074 2.52176V3.08461C5.78834 3.17285 6.1515 3.55711 6.1515 4.01625C6.1515 4.13297 6.05658 4.22719 5.94057 4.22719C5.8242 4.22719 5.72963 4.13297 5.72963 4.01625C5.72963 3.7248 5.44521 3.4875 5.09646 3.4875C4.74771 3.4875 4.46471 3.7248 4.46471 4.01625C4.46471 4.22508 4.644 4.32633 5.05779 4.50773C5.09928 4.52637 5.14111 4.545 5.184 4.56398C5.22408 4.58262 5.26592 4.6009 5.306 4.61883C5.70186 4.7932 6.1515 4.99078 6.1515 5.49633ZM15.238 16.9274H11.8915L11.8011 17.2002H15.3287L15.238 16.9274ZM14.2301 16.5055L13.5653 15.9107L12.9004 16.5055H14.2301ZM11.8915 11.8902H15.238L15.3283 11.6174H11.8011L11.8915 11.8902ZM15.0126 12.3121V13.2198C15.0126 13.5721 14.7254 13.8635 14.3738 13.8691C14.0908 13.8734 13.8613 14.1071 13.8613 14.3898V14.4281C13.8613 14.7104 14.0908 14.9442 14.3738 14.9484C14.7258 14.9541 15.0126 15.2455 15.0126 15.5978V16.5055H14.8618L13.7062 15.4705C13.6257 15.3988 13.5037 15.3988 13.425 15.4705L12.2676 16.5055H12.1168V15.5978C12.1168 15.2455 12.404 14.9541 12.7556 14.9484C13.0386 14.9442 13.2682 14.7104 13.2682 14.4281V14.3898C13.2682 14.1071 13.0386 13.8734 12.7556 13.8691C12.4037 13.8635 12.1168 13.5721 12.1168 13.2198V12.3121H15.0126ZM10.4627 3.2393C10.4627 3.68121 10.8217 4.04086 11.2639 4.04086H13.0773L10.4627 1.40027V3.2393ZM2.51318 1.9002V15.1931C2.51318 15.635 2.87353 15.9947 3.3158 15.9947H11.6946V15.5978C11.6946 15.0166 12.1685 14.5361 12.75 14.5269C12.8031 14.5259 12.8463 14.4816 12.8463 14.4281V14.3898C12.8463 14.336 12.8031 14.2917 12.75 14.291C12.1685 14.2815 11.6946 13.8013 11.6946 13.2198V12.3068C11.6229 12.291 11.5638 12.2393 11.5396 12.1676L11.3086 11.4729C11.2871 11.4086 11.2984 11.3379 11.3388 11.283C11.3775 11.2282 11.4408 11.1955 11.5097 11.1955H13.3733V4.46273H11.2643C10.5896 4.46273 10.0412 3.91395 10.0412 3.2393V1.09863H3.3158C2.87353 1.09863 2.51318 1.45828 2.51318 1.9002ZM7.22975 6.00328H11.6331C11.7494 6.00328 11.844 6.0975 11.844 6.21422C11.844 6.33059 11.7491 6.42516 11.6331 6.42516H7.22975C7.11338 6.42516 7.01881 6.33059 7.01881 6.21422C7.01846 6.0975 7.11338 6.00328 7.22975 6.00328ZM4.25342 7.99699H11.6331C11.7494 7.99699 11.844 8.09156 11.844 8.20793C11.844 8.3243 11.7491 8.41887 11.6331 8.41887H4.25342C4.13705 8.41887 4.04248 8.3243 4.04248 8.20793C4.04213 8.09156 4.13705 7.99699 4.25342 7.99699ZM4.25342 9.9907H11.6331C11.7494 9.9907 11.844 10.0853 11.844 10.2016C11.844 10.318 11.7491 10.4126 11.6331 10.4126H4.25342C4.13705 10.4126 4.04248 10.318 4.04248 10.2016C4.04213 10.0853 4.13705 9.9907 4.25342 9.9907ZM4.25342 11.9844H10.6167C10.7331 11.9844 10.8276 12.079 10.8276 12.1954C10.8276 12.3121 10.7327 12.4063 10.6167 12.4063H4.25342C4.13705 12.4063 4.04248 12.3121 4.04248 12.1954C4.04213 12.079 4.13705 11.9844 4.25342 11.9844ZM11.0674 13.9781C11.1838 13.9781 11.2783 14.0727 11.2783 14.1891C11.2783 14.3058 11.1834 14.4 11.0674 14.4H4.25342C4.13705 14.4 4.04248 14.3058 4.04248 14.1891C4.04248 14.0727 4.1374 13.9781 4.25342 13.9781H11.0674Z" fill="#22BE0D"/>
</svg>
