<svg width="18" height="14" viewBox="0 0 18 14" fill="none" xmlns="http://www.w3.org/2000/svg">
    <path d="M15.6495 7.94109V2.10621C15.6495 1.39254 15.0655 0.808594 14.3508 0.808594H1.3152C0.601523 0.808945 0.0175781 1.39289 0.0175781 2.10621V10.8858C0.0175781 11.5995 0.601523 12.1834 1.3152 12.1834H13.0556C12.8514 11.7847 12.7368 11.3344 12.7368 10.8559C12.7368 9.24574 14.04 7.94109 15.6495 7.94109ZM9.01934 3.67594H14.2552C14.4148 3.67594 14.5441 3.80637 14.5441 3.96598C14.5441 4.12629 14.4144 4.25602 14.2552 4.25602H9.01934C8.85902 4.25602 8.7293 4.12629 8.7293 3.96598C8.7293 3.80637 8.85902 3.67594 9.01934 3.67594ZM9.01934 5.36309H12.7055C12.8658 5.36309 12.9955 5.49281 12.9955 5.65313C12.9955 5.81273 12.8658 5.94211 12.7055 5.94211H9.01934C8.85902 5.94211 8.7293 5.81238 8.7293 5.65313C8.7293 5.49281 8.85902 5.36309 9.01934 5.36309ZM9.01934 7.04918H14.2552C14.4148 7.04918 14.5441 7.17961 14.5441 7.33922C14.5441 7.49953 14.4144 7.62926 14.2552 7.62926H9.01934C8.85902 7.62926 8.7293 7.49953 8.7293 7.33922C8.7293 7.17996 8.85902 7.04918 9.01934 7.04918ZM8.07574 10.2424C8.07574 10.4825 7.97695 10.7019 7.81875 10.8601C7.66019 11.0187 7.44117 11.1171 7.20105 11.1171H6.46172V9.73793C6.46172 9.57762 6.33234 9.44789 6.17168 9.44789C6.01207 9.44789 5.8827 9.57762 5.8827 9.73793V11.1171H3.31523V9.73793C3.31523 9.57762 3.18551 9.44789 3.0252 9.44789C2.86559 9.44789 2.73621 9.57762 2.73621 9.73793V11.1171H1.99687C1.75676 11.1171 1.53738 11.0183 1.37918 10.8601C1.22062 10.7016 1.12219 10.4825 1.12219 10.2424V8.3918C1.12219 8.17559 1.18195 7.97238 1.29164 7.79871C1.40027 7.62539 1.55777 7.48371 1.75395 7.3902V7.39125L3.39539 6.60691V6.46242C2.95875 6.12773 2.64586 5.64539 2.47254 5.12016C2.34492 4.73168 2.2943 4.31789 2.32594 3.92344C2.35898 3.51879 2.47852 3.13031 2.69156 2.80125C3.05016 2.25106 3.65836 1.87453 4.54816 1.87453C5.43727 1.87453 6.04582 2.25106 6.40371 2.80125C6.61781 3.12996 6.7377 3.51879 6.76934 3.92344C6.80238 4.31824 6.75035 4.73168 6.62273 5.12016C6.46313 5.60355 6.18609 6.05004 5.80148 6.3798V6.60691L7.42184 7.38141C7.42887 7.38352 7.43695 7.38738 7.44363 7.3902C7.6391 7.48371 7.79625 7.62539 7.90594 7.79871C8.01562 7.97203 8.07539 8.17559 8.07539 8.3918V10.2424H8.07574ZM9.01934 9.31535C8.85902 9.31535 8.7293 9.18563 8.7293 9.02637C8.7293 8.86606 8.85902 8.73633 9.01934 8.73633H12.7055C12.8658 8.73633 12.9955 8.86606 12.9955 9.02637C12.9955 9.18598 12.8658 9.31535 12.7055 9.31535H9.01934ZM15.6495 8.52012C14.3638 8.52012 13.3154 9.56953 13.3154 10.8559C13.3154 12.1416 14.3638 13.191 15.6495 13.191C16.9341 13.191 17.9824 12.1416 17.9824 10.8559C17.9824 9.56953 16.9341 8.52012 15.6495 8.52012ZM17.0269 10.2551L15.4283 11.8635C15.3158 11.977 15.1323 11.977 15.0198 11.8645L14.2724 11.1203C14.1588 11.0078 14.1588 10.8253 14.2713 10.7118C14.3838 10.5993 14.5663 10.5982 14.6798 10.7107L15.222 11.2507L16.6173 9.84762C16.7298 9.73512 16.9133 9.73406 17.0258 9.84656C17.1394 9.95906 17.1394 10.1426 17.0269 10.2551ZM4.85895 6.86777C4.98551 6.83684 5.10715 6.795 5.22281 6.74508V7.03723C5.22281 7.20879 5.15215 7.36523 5.0393 7.47773C4.92574 7.59129 4.77035 7.66125 4.59879 7.66125C4.42723 7.66125 4.27184 7.59164 4.15828 7.47773C4.04473 7.36523 3.97477 7.20879 3.97477 7.03723V6.78621C4.05949 6.8182 4.14633 6.84598 4.23598 6.86777C4.34461 6.89484 4.44621 6.9075 4.54781 6.9075C4.64871 6.90785 4.75102 6.89484 4.85895 6.86777ZM3.20766 4.2648C3.12082 4.3882 3.02625 4.48805 2.92957 4.56293C2.89652 4.36465 2.88668 4.1632 2.9025 3.96809C2.92746 3.6552 3.01711 3.36023 3.17566 3.1159C3.43195 2.72215 3.8802 2.45426 4.54781 2.45426C5.21543 2.45426 5.66297 2.7225 5.91891 3.1159C6.07746 3.35988 6.16711 3.6552 6.19207 3.96809C6.19523 4.00781 6.19805 4.04895 6.1991 4.08973C5.93016 3.8475 5.61023 3.8577 5.25938 3.86859C4.89867 3.88055 4.4891 3.89355 4.0834 3.25863C3.99762 3.12504 3.81937 3.08531 3.68578 3.17109C3.61406 3.2168 3.56906 3.28852 3.55641 3.36656H3.55535C3.49242 3.73957 3.3648 4.0398 3.20766 4.2648ZM6.05672 4.98656C5.91715 5.38734 5.67703 5.7498 5.34902 6.00223C5.34094 6.0082 5.33391 6.01313 5.32617 6.02016C5.14863 6.15164 4.94648 6.25148 4.72043 6.30703C4.66172 6.32109 4.60477 6.32883 4.54816 6.32883C4.49051 6.32883 4.43355 6.32074 4.37484 6.30703C4.18641 6.26027 4.01309 6.18363 3.85875 6.08168C3.84961 6.0757 3.84187 6.06973 3.83273 6.0648C3.50578 5.84367 3.25758 5.51461 3.09938 5.14406C3.3075 5.02453 3.51 4.84102 3.68051 4.59809C3.79301 4.43848 3.89285 4.25145 3.97336 4.03805C4.42793 4.47363 4.87441 4.45852 5.27801 4.44551C5.59336 4.43531 5.86723 4.42652 6.05672 4.98656Z" fill="#22BE0D"/>
</svg>
