<svg width="16" height="16" viewBox="0 0 16 16" fill="none" xmlns="http://www.w3.org/2000/svg">
    <path d="M9.77778 0H2.66667C1.96007 0.0021103 1.28302 0.28374 0.78338 0.78338C0.28374 1.28302 0.0021103 1.96007 0 2.66667V9.77778C0.0021103 10.4844 0.28374 11.1614 0.78338 11.6611C1.28302 12.1607 1.96007 12.4423 2.66667 12.4444H9.77778C10.4844 12.4423 11.1614 12.1607 11.6611 11.6611C12.1607 11.1614 12.4423 10.4844 12.4444 9.77778V2.66667C12.4423 1.96007 12.1607 1.28302 11.6611 0.78338C11.1614 0.28374 10.4844 0.0021103 9.77778 0ZM8 7.11111H7.11111V8C7.11111 8.23575 7.01746 8.46184 6.85076 8.62854C6.68406 8.79524 6.45797 8.88889 6.22222 8.88889C5.98647 8.88889 5.76038 8.79524 5.59368 8.62854C5.42698 8.46184 5.33333 8.23575 5.33333 8V7.11111H4.44444C4.2087 7.11111 3.9826 7.01746 3.81591 6.85076C3.64921 6.68406 3.55556 6.45797 3.55556 6.22222C3.55556 5.98647 3.64921 5.76038 3.81591 5.59368C3.9826 5.42698 4.2087 5.33333 4.44444 5.33333H5.33333V4.44444C5.33333 4.2087 5.42698 3.9826 5.59368 3.81591C5.76038 3.64921 5.98647 3.55556 6.22222 3.55556C6.45797 3.55556 6.68406 3.64921 6.85076 3.81591C7.01746 3.9826 7.11111 4.2087 7.11111 4.44444V5.33333H8C8.23575 5.33333 8.46184 5.42698 8.62854 5.59368C8.79524 5.76038 8.88889 5.98647 8.88889 6.22222C8.88889 6.45797 8.79524 6.68406 8.62854 6.85076C8.46184 7.01746 8.23575 7.11111 8 7.11111Z" fill="#22BE0D"/>
    <path d="M11.5554 16.0001H3.55539C3.31964 16.0001 3.09355 15.9064 2.92685 15.7397C2.76015 15.573 2.6665 15.3469 2.6665 15.1112C2.6665 14.8754 2.76015 14.6494 2.92685 14.4827C3.09355 14.316 3.31964 14.2223 3.55539 14.2223H11.5554C12.2626 14.2223 12.9409 13.9414 13.441 13.4413C13.9411 12.9412 14.2221 12.2629 14.2221 11.5556V3.55564C14.2221 3.31989 14.3157 3.0938 14.4824 2.9271C14.6491 2.7604 14.8752 2.66675 15.1109 2.66675C15.3467 2.66675 15.5728 2.7604 15.7395 2.9271C15.9062 3.0938 15.9998 3.31989 15.9998 3.55564V11.5556C15.9984 12.7339 15.5297 13.8636 14.6965 14.6968C13.8633 15.53 12.7337 15.9987 11.5554 16.0001Z" fill="#22BE0D"/>
</svg>
