<svg width="21" height="19" viewBox="0 0 21 19" fill="none" xmlns="http://www.w3.org/2000/svg">
<path d="M13.3631 16.7452C12.4735 16.216 11.5826 15.6859 10.6825 15.1558C10.554 15.0667 10.367 14.9715 10.1291 14.9715C9.88947 14.9715 9.70154 15.068 9.5729 15.1577C7.85382 16.1907 6.10057 17.2238 4.37895 18.2248C4.5041 17.7102 4.623 17.1967 4.74096 16.6871L4.74146 16.685C4.87748 16.0975 5.01226 15.5154 5.15581 14.934C5.266 14.5012 5.3668 14.0694 5.4659 13.645L5.4666 13.6419C5.56659 13.2136 5.66488 12.7927 5.77181 12.3728C5.8097 12.224 5.8306 12.0267 5.75144 11.813C5.68105 11.623 5.55658 11.495 5.48845 11.4281L5.47111 11.4111L5.45254 11.3954C4.6744 10.7381 3.90507 10.0806 3.1341 9.42176L3.13347 9.42122C2.36818 8.7672 1.60127 8.11179 0.825209 7.45617C0.824879 7.45586 0.82455 7.45555 0.82422 7.45525C1.05609 7.43191 1.27752 7.41488 1.51488 7.41488H1.54594L1.57685 7.41192C2.37038 7.33593 3.1273 7.27304 3.89355 7.20937C4.60007 7.15067 5.31453 7.09131 6.07291 7.02041L6.08226 7.01954L6.09158 7.01839C6.3886 6.98195 6.63917 6.95202 6.8829 6.95202C7.0652 6.95202 7.26744 6.90534 7.4451 6.7697C7.60511 6.64753 7.6927 6.49313 7.74114 6.36414C8.15605 5.40774 8.56196 4.4603 8.96719 3.51443L8.96746 3.5138C9.34757 2.62657 9.72709 1.74071 10.1138 0.847947C10.3123 1.30393 10.511 1.76715 10.7105 2.23228L10.7108 2.23293C10.9282 2.73974 11.1465 3.24883 11.365 3.74933L11.365 3.74934L11.3676 3.75512C11.5633 4.19178 11.7507 4.63844 11.9417 5.09366L11.9432 5.09723C12.1296 5.54169 12.3195 5.99436 12.5187 6.43975C12.5675 6.56784 12.6549 6.72013 12.8131 6.84091C12.9789 6.96752 13.1662 7.01662 13.3386 7.0226C13.9171 7.07561 14.4947 7.11989 15.0715 7.16378L15.1409 7.16906C15.7036 7.21186 16.2658 7.25463 16.8357 7.3055L16.8357 7.30556L16.8446 7.30622C17.3096 7.34134 17.7847 7.38532 18.2663 7.42991L18.2691 7.43018C18.6421 7.46472 19.019 7.49963 19.393 7.5304C19.3919 7.53153 19.3907 7.53265 19.3896 7.53377C17.8802 8.83884 16.3702 10.1094 14.8565 11.3831C14.7318 11.4784 14.5723 11.6351 14.5012 11.8794C14.4341 12.1101 14.4745 12.3193 14.5297 12.4741C14.762 13.4569 14.9944 14.4484 15.227 15.4405C15.4462 16.376 15.6657 17.3122 15.8851 18.2413C15.0401 17.743 14.2022 17.2445 13.3631 16.7452Z" stroke="#22BE0D" stroke-width="1.3"/>
</svg>
