<svg width="18" height="18" viewBox="0 0 18 18" fill="none" xmlns="http://www.w3.org/2000/svg">
    <path d="M16 11.2461C16 9.42106 14.953 7.79228 13.3849 7C13.3362 10.4992 10.4992 13.3362 7 13.3849C7.79228 14.953 9.42106 16 11.2461 16C12.1018 16 12.9339 15.7721 13.665 15.3391L15.9792 15.9792L15.3391 13.665C15.7721 12.9339 16 12.1018 16 11.2461Z" fill="#22BE0D"/>
    <path d="M13 7.5C13 4.46724 10.5328 2 7.5 2C4.46724 2 2 4.46724 2 7.5C2 8.48839 2.26309 9.45074 2.76267 10.2956L2.02022 12.9797L4.70439 12.2373C5.54926 12.7369 6.51161 13 7.5 13C10.5328 13 13 10.5328 13 7.5ZM6.65601 6.21995H5.81202C5.81202 5.28914 6.56919 4.53197 7.5 4.53197C8.43081 4.53197 9.18798 5.28914 9.18798 6.21995C9.18798 6.69239 8.98797 7.14647 8.63906 7.4656L7.92199 8.12189V8.78005H7.078V7.75023L8.06925 6.84294C8.2464 6.68085 8.34399 6.45963 8.34399 6.21995C8.34399 5.75455 7.9654 5.37596 7.5 5.37596C7.0346 5.37596 6.65601 5.75455 6.65601 6.21995ZM7.078 9.62404H7.92199V10.468H7.078V9.62404Z" fill="#22BE0D"/>
</svg>
