<svg width="19" height="19" viewBox="0 0 19 19" fill="none" xmlns="http://www.w3.org/2000/svg">
<path d="M14.0125 8.76923C11.2622 8.76923 9.025 11.0638 9.025 13.8846C9.025 16.7054 11.2622 19 14.0125 19C16.7628 19 19 16.7054 19 13.8846C19 11.0638 16.7628 8.76923 14.0125 8.76923ZM14.0125 16.6859C13.6192 16.6859 13.3 16.3585 13.3 15.9551C13.3 15.5517 13.6192 15.2244 14.0125 15.2244C14.4058 15.2244 14.725 15.5517 14.725 15.9551C14.725 16.3585 14.4058 16.6859 14.0125 16.6859ZM14.725 14.0064C14.725 14.4098 14.4058 14.7372 14.0125 14.7372C13.6192 14.7372 13.3 14.4098 13.3 14.0064V12.0577C13.3 11.6543 13.6192 11.3269 14.0125 11.3269C14.4058 11.3269 14.725 11.6543 14.725 12.0577V14.0064ZM13.775 7.31744V2.67949C13.775 1.19846 12.6065 0 11.1625 0H2.6125C1.1685 0 0 1.19846 0 2.67949V15.3462C0 16.8272 1.1685 18.0256 2.6125 18.0256H9.0345C8.1415 16.8954 7.6 15.4533 7.6 13.8846C7.6 10.3379 10.3455 7.4441 13.775 7.31744ZM3.5625 3.89744H10.2125C10.602 3.89744 10.925 4.22872 10.925 4.62821C10.925 5.02769 10.602 5.35897 10.2125 5.35897H3.5625C3.173 5.35897 2.85 5.02769 2.85 4.62821C2.85 4.22872 3.173 3.89744 3.5625 3.89744ZM3.5625 6.82051H10.2125C10.602 6.82051 10.925 7.15179 10.925 7.55128C10.925 7.95077 10.602 8.28205 10.2125 8.28205H3.5625C3.173 8.28205 2.85 7.95077 2.85 7.55128C2.85 7.15179 3.173 6.82051 3.5625 6.82051ZM6.4125 11.2051H3.5625C3.173 11.2051 2.85 10.8738 2.85 10.4744C2.85 10.0749 3.173 9.74359 3.5625 9.74359H6.4125C6.802 9.74359 7.125 10.0749 7.125 10.4744C7.125 10.8738 6.802 11.2051 6.4125 11.2051Z" fill="#22BE0D"/>
</svg>
