<svg width="16" height="20" viewBox="0 0 16 20" fill="none" xmlns="http://www.w3.org/2000/svg">
<path fill-rule="evenodd" clip-rule="evenodd" d="M16 1.6279V19.3022C16 19.5608 15.8615 19.798 15.6401 19.9189C15.4188 20.0398 15.1516 20.0241 14.9447 19.878L12.7 18.2938L10.5777 19.8687C10.3231 20.0585 9.97582 20.0408 9.74011 19.8268L8.12791 18.3692L6.51572 19.8268C6.28 20.0408 5.93273 20.0585 5.67815 19.8687L3.55582 18.2938L1.31118 19.878C1.10426 20.024 0.837077 20.0398 0.615725 19.9189C0.394408 19.798 0.255859 19.5608 0.255859 19.3022V1.6279C0.255895 0.729297 0.960313 0 1.83031 0H14.4256C15.2955 0 16 0.729297 16 1.6279ZM14.6505 1.6279C14.6505 1.49952 14.5497 1.39534 14.4256 1.39534H1.83031C1.70615 1.39534 1.60539 1.49952 1.60539 1.6279V17.9813L3.1852 16.866C3.41911 16.7004 3.72859 16.7041 3.95891 16.8753L6.02993 18.4129L7.68351 16.9171C7.9381 16.6864 8.31779 16.6864 8.57238 16.9171L10.226 18.4129L12.297 16.8753C12.5273 16.7041 12.8368 16.7004 13.0707 16.866L14.6505 17.9813V1.6279Z" fill="#22BE0D"/>
<path fill-rule="evenodd" clip-rule="evenodd" d="M4.52924 5.11653C4.15678 5.11653 3.85449 4.80397 3.85449 4.41886C3.85449 4.03375 4.15678 3.72119 4.52924 3.72119H11.7265C12.099 3.72119 12.4013 4.03375 12.4013 4.41886C12.4013 4.80397 12.099 5.11653 11.7265 5.11653H4.52924Z" fill="#22BE0D"/>
<path fill-rule="evenodd" clip-rule="evenodd" d="M4.52924 8.83723C4.15678 8.83723 3.85449 8.52468 3.85449 8.13956C3.85449 7.75445 4.15678 7.44189 4.52924 7.44189H11.7265C12.099 7.44189 12.4013 7.75445 12.4013 8.13956C12.4013 8.52468 12.099 8.83723 11.7265 8.83723H4.52924Z" fill="#22BE0D"/>
<path fill-rule="evenodd" clip-rule="evenodd" d="M4.52924 12.5579C4.15678 12.5579 3.85449 12.2454 3.85449 11.8603C3.85449 11.4752 4.15678 11.1626 4.52924 11.1626H8.12789C8.50035 11.1626 8.80264 11.4752 8.80264 11.8603C8.80264 12.2454 8.50035 12.5579 8.12789 12.5579H4.52924Z" fill="#22BE0D"/>
</svg>
