<svg width="170" height="160" viewBox="0 0 170 160" fill="none" xmlns="http://www.w3.org/2000/svg">
    <path d="M125.508 26.1819L122.31 28.5096L127.835 29.3799L125.508 26.1819Z" fill="#E2E8F0"/>
    <path d="M133.791 27.4833L130.593 29.8111L136.119 30.6814L133.791 27.4833Z" fill="#E2E8F0"/>
    <path d="M142.073 28.7908L138.875 31.1186L144.401 31.9889L142.073 28.7908Z" fill="#E2E8F0"/>
    <path d="M150.356 30.0923L147.158 32.42L152.684 33.2903L150.356 30.0923Z" fill="#E2E8F0"/>
    <path d="M158.642 31.3972L155.444 33.725L160.97 34.5953L158.642 31.3972Z" fill="#E2E8F0"/>
    <path d="M166.922 32.7013L163.724 35.0291L169.252 35.9029L166.922 32.7013Z" fill="#E2E8F0"/>
    <path d="M135.123 19.0243L131.925 21.3521L137.451 22.2224L135.123 19.0243Z" fill="#E2E8F0"/>
    <path d="M143.405 20.3317L140.207 22.6594L145.733 23.5297L143.405 20.3317Z" fill="#E2E8F0"/>
    <path d="M151.688 21.6332L148.49 23.961L154.016 24.8313L151.688 21.6332Z" fill="#E2E8F0"/>
    <path d="M159.974 22.9382L156.776 25.266L162.302 26.1363L159.974 22.9382Z" fill="#E2E8F0"/>
    <path d="M144.738 11.8727L141.54 14.2004L147.065 15.0707L144.738 11.8727Z" fill="#E2E8F0"/>
    <path d="M153.021 13.1744L149.823 15.5022L155.349 16.3725L153.021 13.1744Z" fill="#E2E8F0"/>
    <path d="M130.352 22.3595L127.154 24.6873L132.68 25.5576L130.352 22.3595Z" fill="#E2E8F0"/>
    <path d="M138.638 23.6646L135.437 25.9949L140.966 26.8627L138.638 23.6646Z" fill="#E2E8F0"/>
    <path d="M146.92 24.9721L143.722 27.2999L149.248 28.1702L146.92 24.9721Z" fill="#E2E8F0"/>
    <path d="M155.203 26.2735L152.005 28.6013L157.531 29.4716L155.203 26.2735Z" fill="#E2E8F0"/>
    <path d="M163.486 27.5811L160.288 29.9089L165.813 30.7792L163.486 27.5811Z" fill="#E2E8F0"/>
    <path d="M139.929 15.4469L136.731 17.7747L142.257 18.645L139.929 15.4469Z" fill="#E2E8F0"/>
    <path d="M148.215 16.7519L145.017 19.0797L150.542 19.95L148.215 16.7519Z" fill="#E2E8F0"/>
    <path d="M156.497 18.0594L153.299 20.3872L158.825 21.2575L156.497 18.0594Z" fill="#E2E8F0"/>
    <path d="M149.593 8.00016L146.392 10.3304L151.921 11.1982L149.593 8.00016Z" fill="#E2E8F0"/>
    <path d="M147.676 128.446L146.884 127.84C157.428 113.997 163.002 97.46 163.002 80.0096C163.002 52.9762 149.401 28.1056 126.617 13.4796L127.158 12.6406C150.231 27.4437 164 52.6313 164 80.0096C164 97.6744 158.351 114.426 147.676 128.446Z" fill="white"/>
    <path d="M84.0047 160C39.8912 160 4 124.111 4 80C4 35.8891 39.8912 0 84.0047 0V0.997429C40.4412 0.997429 5.00682 36.439 5.00682 79.9907C5.00682 123.552 40.4505 158.984 84.0047 158.984C97.1679 158.984 110.201 155.684 121.686 149.438L122.161 150.315C110.527 156.663 97.3264 160 84.0047 160Z" fill="white"/>
    <path d="M46.1468 141.58C24.5934 128.306 11.7285 105.281 11.7285 80H13.7328C13.7328 104.582 26.2435 126.963 47.2002 139.874L46.1468 141.58Z" fill="white"/>
    <path d="M84.0049 152.282C76.0809 152.282 68.2967 151.005 60.8574 148.497L61.5007 146.605C68.7348 149.047 76.3046 150.287 84.0142 150.287C120.213 150.287 150.278 123.17 153.923 87.2059L155.918 87.411C152.152 124.381 121.239 152.282 84.0049 152.282Z" fill="white"/>
    <path d="M153.382 68.7764C150.762 52.4725 142.391 37.5296 129.796 26.707C117.071 15.7631 100.804 9.74121 84.0047 9.74121C70.4406 9.74121 57.2774 13.6098 45.932 20.9367C32.7129 29.4755 22.6261 42.3397 17.5267 57.1614L15.6343 56.5089C20.8735 41.2677 31.2493 28.04 44.8413 19.2588C56.5129 11.7268 70.049 7.74634 83.9953 7.74634C101.279 7.74634 118.003 13.9453 131.092 25.1968C144.041 36.3271 152.655 51.6988 155.349 68.4688L153.382 68.7764Z" fill="white"/>
    <path d="M84.0047 132.202C55.2171 132.202 31.7993 108.786 31.7993 79.9998C31.7993 68.3475 35.5562 57.3291 42.6506 48.1378L44.2354 49.359C37.4114 58.2054 33.8036 68.795 33.8036 79.9998C33.8036 107.676 56.3265 130.198 84.0047 130.198C88.9176 130.198 93.7745 129.489 98.4264 128.091L99.0044 130.011C94.1567 131.475 89.104 132.202 84.0047 132.202Z" fill="white"/>
    <path d="M119.262 118.499L117.91 117.026C128.267 107.537 134.206 94.0481 134.206 80.0094C134.206 70.1282 131.334 60.564 125.909 52.3515L127.577 51.2515C133.227 59.7903 136.21 69.7367 136.21 80.0187C136.201 94.6074 130.029 108.637 119.262 118.499Z" fill="white"/>
    <path d="M115.235 40.6997C106.276 33.5681 95.4713 29.8019 84.0048 29.8019C73.946 29.8019 64.2413 32.7664 55.9351 38.3785L54.8164 36.7191C63.4489 30.8833 73.5451 27.8069 84.0048 27.8069C95.9375 27.8069 107.171 31.7223 116.484 39.1429L115.235 40.6997Z" fill="white"/>
    <path d="M84.0047 123.234C76.9757 123.234 69.9932 121.51 63.8218 118.247L64.2879 117.362C70.3195 120.55 77.1341 122.237 83.9954 122.237C102.948 122.237 119.691 109.494 124.716 91.2419L125.676 91.5123C120.548 110.193 103.405 123.234 84.0047 123.234Z" fill="white"/>
    <path d="M53.4367 110.585C45.2703 102.419 40.7676 91.559 40.7676 80.0092C40.7676 56.1733 60.1581 36.7745 84.0048 36.7745C107.842 36.7745 127.242 56.1733 127.242 80.0092H126.245C126.245 56.7233 107.301 37.7813 84.0141 37.7813C60.7268 37.7813 41.7837 56.7233 41.7837 80.0092C41.7837 91.2886 46.1746 101.897 54.1638 109.876L53.4367 110.585Z" fill="white"/>
    <path d="M84.0045 106.894C69.1725 106.894 57.1094 94.8311 57.1094 80.0001C57.1094 65.169 69.1725 53.1066 84.0045 53.1066V55.1108C70.2819 55.1108 59.1137 66.2783 59.1137 80.0001C59.1137 93.7218 70.2819 104.889 84.0045 104.889C97.727 104.889 108.895 93.7218 108.895 80.0001H110.9C110.89 94.8311 98.8271 106.894 84.0045 106.894Z" fill="white"/>
    <path d="M84.005 93.3676C76.631 93.3676 70.6367 87.3736 70.6367 80.0001H71.6342C71.6342 86.8143 77.181 92.3608 83.9957 92.3608C90.8103 92.3608 96.3572 86.8143 96.3572 80.0001C96.3572 73.1858 90.8103 67.6393 83.9957 67.6393C80.2108 67.6393 76.6869 69.3359 74.319 72.3002L73.536 71.6757C76.0903 68.469 79.9032 66.6326 83.9957 66.6326C91.3697 66.6326 97.364 72.6265 97.364 80.0001C97.364 87.3736 91.3697 93.3676 84.005 93.3676Z" fill="white"/>
    <path d="M39.7527 135.576L37.1781 133L39.7527 130.424C40.0767 130.1 40.0767 129.567 39.7527 129.243C39.4287 128.919 38.8964 128.919 38.5724 129.243L35.9978 131.819L33.4233 129.243C33.0993 128.919 32.567 128.919 32.243 129.243C31.919 129.567 31.919 130.1 32.243 130.424L34.8176 133L32.243 135.576C31.919 135.9 31.919 136.433 32.243 136.757C32.567 137.081 33.0993 137.081 33.4233 136.757L35.9978 134.181L38.5724 136.757C38.8964 137.081 39.4287 137.081 39.7527 136.757C40.0824 136.433 40.0824 135.906 39.7527 135.576Z" fill="#FF8092"/>
    <path d="M163.757 113.576L161.181 111L163.757 108.424C164.081 108.1 164.081 107.567 163.757 107.243C163.433 106.919 162.9 106.919 162.576 107.243L160 109.819L157.424 107.243C157.1 106.919 156.567 106.919 156.243 107.243C155.919 107.567 155.919 108.1 156.243 108.424L158.819 111L156.243 113.576C155.919 113.9 155.919 114.433 156.243 114.757C156.567 115.081 157.1 115.081 157.424 114.757L160 112.181L162.576 114.757C162.9 115.081 163.433 115.081 163.757 114.757C164.081 114.433 164.081 113.906 163.757 113.576Z" fill="#2DD4BF"/>
    <path d="M7.75267 103.576L5.17809 101L7.75267 98.424C8.07666 98.0999 8.07666 97.5673 7.75267 97.2431C7.42868 96.919 6.89641 96.919 6.57241 97.2431L3.99783 99.8191L1.42325 97.2431C1.09926 96.919 0.566986 96.919 0.242994 97.2431C-0.080998 97.5673 -0.080998 98.0999 0.242994 98.424L2.81757 101L0.242994 103.576C-0.080998 103.9 -0.080998 104.433 0.242994 104.757C0.566986 105.081 1.09926 105.081 1.42325 104.757L3.99783 102.181L6.57241 104.757C6.89641 105.081 7.42868 105.081 7.75267 104.757C8.08245 104.433 8.08245 103.906 7.75267 103.576Z" fill="#887EF9"/>
</svg>
