<svg width="18" height="19" viewBox="0 0 18 19" fill="none" xmlns="http://www.w3.org/2000/svg">
<path d="M18 11.8184V14.5113H17.8307H15.7729H14.7962C14.1254 14.5113 13.5654 13.9057 13.5654 13.1648C13.5654 12.431 14.1189 11.8255 14.7962 11.8255V11.8184H15.7729H17.8242H18ZM15.0306 14.0909C15.4929 14.0909 15.8771 13.6849 15.8641 13.1791C15.8641 12.6732 15.4929 12.2672 15.0306 12.2672C14.5683 12.2672 14.1971 12.6732 14.1971 13.1791C14.1971 13.6849 14.5683 14.0909 15.0306 14.0909Z" fill="#22BE0D"/>
<path d="M17.6145 14.9886V18.6005C17.6145 18.8142 17.4452 18.9995 17.2499 18.9995H0.364663C0.169308 18.9995 0 18.8214 0 18.6005V6.86719C0.273497 7.1664 0.644673 7.3445 1.06143 7.3445H2.16193H3.88106H4.27177H7.25419H14.0656H15.4461H17.621V11.3482H15.9931V9.5672C15.9931 9.14689 15.6805 8.81205 15.3028 8.81205H1.66703C1.45214 8.81205 1.2633 9.01153 1.2633 9.25375V17.0688C1.2633 17.3039 1.44563 17.5105 1.66703 17.5105H15.2963C15.6805 17.5105 15.9931 17.1686 15.9931 16.7483V14.9815L17.6145 14.9886Z" fill="#22BE0D"/>
<path d="M17.615 4.73663V6.88097H15.5768L14.4633 4.6084H17.5108C17.5694 4.61552 17.615 4.66539 17.615 4.73663Z" fill="#22BE0D"/>
<path d="M15.0309 12.7158C15.2653 12.7158 15.4477 12.9153 15.4477 13.1718C15.4477 13.414 15.2653 13.6277 15.0309 13.6277C14.8095 13.6277 14.6141 13.4353 14.6141 13.1718C14.6141 12.9224 14.803 12.7158 15.0309 12.7158Z" fill="#22BE0D"/>
<path d="M15.0833 6.8816H14.1912L13.273 5.02222C13.247 4.97235 13.2079 4.92961 13.1428 4.90823C13.0907 4.88686 13.0256 4.90111 12.98 4.92961C12.726 5.07921 12.4395 5.11483 12.179 5.02934C11.9251 4.9581 11.7297 4.76575 11.606 4.53066C11.5539 4.41667 11.4237 4.37393 11.313 4.43805L7.17794 6.88872H5.10718L10.1473 3.90374C10.1799 3.89662 10.2125 3.87525 10.245 3.84675L11.4758 3.12722C11.4888 3.1201 11.4953 3.1201 11.5083 3.10585L12.7065 2.40057C12.7391 2.37919 12.7716 2.37207 12.8107 2.38632C12.8498 2.40057 12.8758 2.42906 12.8953 2.45756L13.9047 4.49504L15.0833 6.8816Z" fill="#22BE0D"/>
<path d="M12.9952 5.44957L13.705 6.88863H8.0918L11.3542 4.95801C11.53 5.21447 11.7775 5.3997 12.064 5.48519C12.3701 5.59205 12.6957 5.57068 12.9952 5.44957Z" fill="#22BE0D"/>
<path d="M7.73383 0.028302L10.9963 2.85655L10.1107 3.37661L8.87341 2.308C8.83434 2.26526 8.76922 2.25101 8.71712 2.25813C8.65852 2.26526 8.60642 2.29375 8.57386 2.35074C8.39804 2.59296 8.14408 2.74969 7.87058 2.79244C7.61011 2.82806 7.36266 2.74969 7.1673 2.58584C7.12823 2.54309 7.06311 2.52885 7.01102 2.53597C6.95241 2.54309 6.90032 2.57159 6.86776 2.62858L3.76812 6.90302H2.58948L4.27605 4.57345C4.28907 4.5592 4.30209 4.54495 4.3086 4.5307L7.51894 0.0852944C7.58406 -0.00731832 7.67523 -0.0215664 7.73383 0.028302Z" fill="#22BE0D"/>
<path d="M8.77049 2.81348L9.70819 3.63274L4.41406 6.7602L7.09043 3.07707C7.34439 3.2338 7.63742 3.29079 7.92395 3.25517C8.24954 3.2053 8.53606 3.04857 8.77049 2.81348Z" fill="#22BE0D"/>
<path d="M3.699 4.61552L2.05801 6.88097H1.0617C0.48866 6.88097 0.00678387 6.38229 0.000272029 5.7625C-0.00623982 5.44904 0.104462 5.15695 0.299817 4.94323C0.495172 4.72951 0.755646 4.6084 1.03566 4.6084L3.699 4.61552Z" fill="#22BE0D"/>
<path d="M15.5648 14.9893V16.7632C15.5648 16.9199 15.4476 17.0553 15.2979 17.0553H1.68811V9.29004H15.2848C15.4281 9.29004 15.5518 9.41827 15.5518 9.58213V11.3631H14.7834C13.8653 11.3631 13.1164 12.1824 13.1164 13.1798C13.1164 14.1843 13.8653 15.0035 14.7834 15.0035L15.5648 14.9893Z" fill="#22BE0D"/>
</svg>
